<svg xmlns="http://www.w3.org/2000/svg" xmlns:xlink="http://www.w3.org/1999/xlink" width="550.064" height="553.861" viewBox="0 0 550.064 553.861"><defs><linearGradient id="linear-gradient" x1="1" x2=".318" y1=".777" y2=".5" gradientUnits="objectBoundingBox"><stop offset="0" stop-color="#939393"/><stop offset="1" stop-color="#767676"/></linearGradient><linearGradient id="linear-gradient-2" x1=".874" x2=".094" y1=".393" y2=".731" gradientUnits="objectBoundingBox"><stop offset="0" stop-color="#575757"/><stop offset="1" stop-color="#646464"/></linearGradient><linearGradient id="linear-gradient-3" x1=".701" x2=".092" y1=".15" y2="1" gradientUnits="objectBoundingBox"><stop offset="0" stop-color="#e8e8e8"/><stop offset="1" stop-color="#f7f7f7"/></linearGradient><linearGradient id="linear-gradient-4" x1=".177" x2=".816" y1=".186" y2=".888" gradientUnits="objectBoundingBox"><stop offset="0" stop-color="#868686"/><stop offset="1" stop-color="#626262"/></linearGradient><linearGradient id="linear-gradient-5" x2=".338" y1=".428" y2=".089" gradientUnits="objectBoundingBox"><stop offset="0" stop-color="#939393"/><stop offset="1" stop-color="#4a4a4a"/></linearGradient><linearGradient id="linear-gradient-6" x1=".752" x2=".398" y1=".961" y2=".214" gradientUnits="objectBoundingBox"><stop offset="0" stop-color="#626262"/><stop offset="1" stop-color="#3b3b3b"/></linearGradient><linearGradient id="linear-gradient-7" x1=".11" x2=".841" y1=".177" y2=".837" gradientUnits="objectBoundingBox"><stop offset="0" stop-color="#868686"/><stop offset="1" stop-color="#5a5a5a"/></linearGradient><linearGradient id="linear-gradient-8" x1=".048" x2=".945" y1=".552" y2=".252" gradientUnits="objectBoundingBox"><stop offset="0" stop-color="#717171"/><stop offset="1" stop-color="#4b4b4b"/></linearGradient><linearGradient id="linear-gradient-9" x1=".071" x2=".896" y1=".239" y2=".627" gradientUnits="objectBoundingBox"><stop offset="0" stop-color="#555"/><stop offset="1" stop-color="#525252"/></linearGradient><linearGradient id="linear-gradient-10" x1=".582" x2=".551" y1=".066" y2=".748" gradientUnits="objectBoundingBox"><stop offset="0" stop-color="#ffee98"/><stop offset="1" stop-color="#ffc900"/></linearGradient></defs><g id="그룹_22" data-name="그룹 22" transform="translate(-188.725 -449.599)"><g id="그룹_20" data-name="그룹 20"><path id="패스_34" fill="url(#linear-gradient)" d="M6679.208,776.634l-40.649-19.047-3.36,19.047,26.779,15.693Z" data-name="패스 34" transform="translate(-5970)"/><g id="그룹_19" data-name="그룹 19"><path id="패스_32" fill="url(#linear-gradient-2)" d="M6688.534,913.7,6654.6,882.256l-323.534,74.291,24.421,32.525,277.1-45.3Z" data-name="패스 32" transform="translate(-5970)"/><path id="패스_43" fill="#dedede" d="M6501.141,818.648c-225.908,27.836-208.639,96.274-208.639,96.274s32.818,102.3,58.366,71.611,52.7-48.145,52.7-48.145Z" data-name="패스 43" transform="translate(-5970)"/><path id="패스_36" fill="url(#linear-gradient-3)" d="M6661.56,804.4V912.283l-123.748,30.345c-30.937,7.586-177.179,36.621-182.911,33.842s0-51.726,0-69.451-4.048-26.994,14.382-37.883,149.027-35.2,149.027-35.2Z" data-name="패스 36" transform="translate(-5970)"/><path id="패스_35" fill="url(#linear-gradient-4)" d="M6183.334,752.7s-7.013,32.954-7.126,66.645,2.735,57.293,7.693,67.059,31.209,34.155,67.206,62.511,60.121,47.381,75.76,51.975,20.278,1.62,20.278,1.62l-9.134-154.621Z" data-name="패스 35" transform="translate(-5970)"/><path id="패스_33" fill="url(#linear-gradient-5)" d="M6183.678,752.1l55.313-17.605,115.038,117.324h-18.055s-46.318-6.968-83.77-30.174S6183.678,752.1,6183.678,752.1Z" data-name="패스 33" transform="translate(-5970)"/><path id="패스_31" fill="url(#linear-gradient-6)" d="M6348.856,1003s104.011-15.537,188.907-32.175,150.676-34.376,150.676-34.376,3.149-1.71,3.272-11.931-3.272-11.227-3.272-11.227l-47.521,16.89c-11.88,4.222-95.035,21.729-166.593,34.7s-119.642,17.179-119.642,17.179-8.81-14.953-10.636-60.143,8.583-58.433,8.583-58.433,311.564-55.248,327.252-64.041c14.888-8.345-.054-22.786-.689-22.806-2-.065,5.507,2.355-66.986,18.109-86.4,18.776-277.944,57-277.944,57s-12.665,20.7-6.922,84.707S6348.856,1003,6348.856,1003Z" data-name="패스 31" transform="translate(-5970)"/></g></g><path id="패스_42" fill="#dedede" d="M6518.856,671.949c-275.828,7.483-267.319,73.936-267.319,73.936l36.688,84.833,264.764-31.174,90.877-113.115Z" data-name="패스 42" transform="translate(-5970)"/><path id="패스_38" fill="url(#linear-gradient-7)" d="M6214.479,617.545c-7.437,5.593-6.515,86.98-2.489,113.009s71.358,127.861,76.327,120.7,0-148.583,0-148.583-22.45-26.339-41.587-49.993C6230.708,632.87,6217.908,614.966,6214.479,617.545Z" data-name="패스 38" transform="translate(-5970)"/><path id="패스_39" fill="#6c6c6c" d="M6286.691,701.212l376.451-8.839s9.711-12.172,1.708-23.28-32.01-34.641-32.01-34.641-402.921-21.671-417.665-16.573S6286.691,701.212,6286.691,701.212Z" data-name="패스 39" transform="translate(-5970)"/><path id="패스_40" fill="url(#linear-gradient-8)" d="M6284.524,822.025,6644.653,781.3s18.781,13.174,23.268,16.579-10.071,13.764-10.071,13.764l-364.6,27.957Z" data-name="패스 40" transform="translate(-5970)"/><path id="패스_41" fill="#f7f7f7" d="M6294.71,821.13c2.123,6.916,154.966-6.418,205.177-8.5s146.22-20.533,146.22-20.533V697.2L6321.2,724.4s-12.345.537-17.831,7.375-4.113,19.976-4.113,19.976S6292.587,814.214,6294.71,821.13Z" data-name="패스 41" transform="translate(-5970)"/><path id="패스_37" fill="url(#linear-gradient-9)" d="M6658.153,695c-7.518,2.447-77.231,7.107-153.065,12.015-73.228,3.456-201.075,10.51-206.457,12.85s-5.207,42.064-6.943,56.085.995,48.755,6.943,54.741,146.423-3.829,236.3-11.49,129.2-23.413,134.1-19.208,2.6,17.17-2.652,19.929-106.13,14.27-140.847,18.291-226.115,20.135-239.427,12.857-12.125-57.444-13.692-78.292,2.5-62.379,13.692-71.725c5.318-4.44,95.609-5.062,183.231-12.2,149.7-11.861,193.839-19.022,196.934-16.339,1.417,1.229,2.192,8.987,1.332,13.859S6667.477,691.965,6658.153,695Z" data-name="패스 37" transform="translate(-5970)"/><g id="그룹_21" data-name="그룹 21" transform="translate(-557 404)"><g id="그룹_18" data-name="그룹 18" transform="translate(-173 -212)"><path id="패스_22" fill="#c7be9d" d="M6849.734,336.451c-73.173,17.657-55.648,133.845-55.648,133.845l48.981,23.151,328.445-45.485-2.834-119.228Z" data-name="패스 22" transform="translate(-5731)"/><path id="패스_23" fill="#f0c400" d="M7168.949,420.508l29.28,22.981L6918.65,490.6h-82.51l-10.784-14.772Z" data-name="패스 23" transform="translate(-5731)"/><path id="패스_24" fill="#dedcd1" d="M6858.117,389.47s146.467-13.512,196.046-17.632,117.339-19.08,117.339-19.08v83.083s-66.547,11.813-148.47,22.753-169.583,23.667-179.222,20.872-7.052-5.566-7.014-43.759S6858.117,389.47,6858.117,389.47Z" data-name="패스 24" transform="translate(-5731)"/><path id="패스_25" fill="#c7a000" d="M7186.664,349.461c-10.239,4.729-140.639,20.434-170.537,22.9s-176.339,11.144-180.049,12.944-5.6,30.643-4.234,54.166,5.644,40.669,11.477,46.635c1.972,2.016,44.673-.315,98.5-6.512,104.68-12.053,250.9-41.025,255.248-37.095s3.092,10.583-.936,14.237-134.486,22.014-226,33.963-140.054,13.831-140.054,13.831l-76.967-86.491,41.128-111.2s390.35,18.7,396.653,22S7196.9,344.732,7186.664,349.461Z" data-name="패스 25" transform="translate(-5731)"/><path id="패스_29" fill="url(#linear-gradient-10)" d="M6817.741,370.552S6954.248,359.707,7009,354.986s188.929-19.315,182.792-25.239c-1.651-1.594-2.583-4.842-23.4-12.486-56.21-20.645-173.555-57.544-201.958-59.474-38.854-2.639-239.468,23.454-265.994,27.363s-43.98,15.708-43.98,15.708l88.846,47.25Z" data-name="패스 29" transform="translate(-5731)"/><path id="패스_30" fill="#e0b100" d="M6657.437,299.919s58.024,29,74.438,38.429,85.582,31.664,85.582,31.664-11.539,25.72-8.341,73.673,23.562,60.7,23.562,60.7a86.694,86.694,0,0,1-9.458.915,56.372,56.372,0,0,1-13.646-1.7c-14.41-4.074-34.309-14.766-58.147-26.775-42.722-21.52-93.988-57.955-93.988-57.955a201.665,201.665,0,0,1-7.712-55.339C6649.725,332.383,6657.437,299.919,6657.437,299.919Z" data-name="패스 30" transform="translate(-5731)"/><path id="패스_26" fill="#ede7ca" d="M7171.5,363.275s-282.095,38.236-302.647,38.963-21.641,11.982-11.434,13.878,17.715-.935,52.085-5.016c67.658-8.032-46.46,3.458,262-33.871Z" data-name="패스 26" transform="translate(-5731 25)"/><path id="패스_27" fill="#ede7ca" d="M7171.5,363.275s-282.095,38.236-302.647,38.963-21.641,11.982-11.434,13.878,17.715-.935,52.085-5.016c67.658-8.032-46.46,3.458,262-33.871Z" data-name="패스 27" transform="translate(-5731 53)"/><path id="패스_28" fill="#ede7ca" d="M7171.5,363.275s-282.095,38.236-302.647,38.963-21.641,11.982-11.434,13.878,17.715-.935,52.085-5.016c67.658-8.032-46.46,3.458,262-33.871Z" data-name="패스 28" transform="translate(-5731)"/><path id="합치기_2" fill="#eaeaea" d="M-5233.578-86.16c-10.4-1.9-9.289-13.15,11.649-13.878s306.212-38.7,306.212-38.7l.727,13.853c-314.233,37.329-196.6,25.676-265.526,33.708-27.383,3.191-38.028,5.617-46.341,5.617A36.567,36.567,0,0,1-5233.578-86.16Zm0-28c-10.4-1.9-9.289-13.15,11.649-13.878s304.723-38.636,304.723-38.636l.728,13.882c-314.232,37.329-195.113,25.584-264.038,33.616-27.383,3.191-38.028,5.617-46.341,5.617A36.567,36.567,0,0,1-5233.578-114.159Zm0-25c-10.4-1.9-9.289-13.15,11.649-13.878s303.478-38.388,303.478-38.388l.728,13.9c-314.233,37.329-193.868,25.314-262.793,33.346-27.383,3.191-38.028,5.617-46.341,5.617A36.567,36.567,0,0,1-5233.578-139.159Z" data-name="합치기 2" transform="matrix(0.999, 0.052, -0.052, 0.999, 6307.898, 972.627)"/><path id="합치기_3" fill="#e2e2e2" d="M-5233.577-86.16c-10.4-1.895-9.29-13.15,11.648-13.877s272.329-36.682,272.329-36.682l-.789,15.07c-314.233,37.329-161.2,22.441-230.126,30.473-27.383,3.191-38.028,5.617-46.342,5.617A36.561,36.561,0,0,1-5233.577-86.16Zm0-28c-10.4-1.9-9.29-13.15,11.648-13.878s273.549-33.9,273.549-33.9l-.792,15.127c-214.084,25.431-211.85,25.311-210.476,25.192.644-.055,1.1-.112-20.868,2.448-27.383,3.191-38.028,5.617-46.342,5.617A36.561,36.561,0,0,1-5233.577-114.16Zm0-25c-10.4-1.895-9.29-13.149,11.648-13.877s275.249-34.562,275.249-34.562l-.774,14.778c-314.233,37.329-164.137,20.614-233.061,28.646-27.38,3.192-38.025,5.618-46.339,5.618A36.562,36.562,0,0,1-5233.577-139.16Z" data-name="합치기 3" transform="translate(6371.395 572.156) rotate(-3)"/></g></g></g></svg>