<svg xmlns="http://www.w3.org/2000/svg" xmlns:xlink="http://www.w3.org/1999/xlink" width="527" height="589" viewBox="0 0 527 589"><defs><linearGradient id="linear-gradient" x1=".035" x2=".981" y1=".117" y2=".849" gradientUnits="objectBoundingBox"><stop offset="0" stop-color="#ffe352"/><stop offset="1" stop-color="#ffc900"/></linearGradient><linearGradient id="linear-gradient-2" x1=".177" x2=".94" y1=".145" y2=".936" gradientUnits="objectBoundingBox"><stop offset="0" stop-color="#fff"/><stop offset="1" stop-color="#f2f2f2"/></linearGradient><linearGradient id="linear-gradient-3" x1=".036" x2="1.166" y2="1.053" gradientUnits="objectBoundingBox"><stop offset="0" stop-color="#fcfcfc"/><stop offset="1" stop-color="#b4b4b4"/></linearGradient><linearGradient id="linear-gradient-4" x1=".822" x2=".311" y1="1" y2=".382" gradientUnits="objectBoundingBox"><stop offset="0" stop-color="#0b0b0b"/><stop offset="1" stop-color="#a8a8a8"/></linearGradient><linearGradient id="linear-gradient-5" x1=".5" x2=".5" y2="1" gradientUnits="objectBoundingBox"><stop offset="0" stop-color="#838383"/><stop offset="1" stop-color="#d9d6c6"/></linearGradient></defs><g id="그룹_24" data-name="그룹 24" transform="translate(-1271 -72)"><path id="사각형_23" fill="url(#linear-gradient)" d="M25,0H502a25,25,0,0,1,25,25V146a0,0,0,0,1,0,0H0a0,0,0,0,1,0,0V25A25,25,0,0,1,25,0Z" data-name="사각형 23" transform="translate(1271 138)"/><g id="그룹_23" data-name="그룹 23"><ellipse id="타원_36" cx="17" cy="22.5" fill="#8c8b8a" data-name="타원 36" rx="17" ry="22.5" transform="translate(1370 166)"/><ellipse id="타원_37" cx="17" cy="22.5" fill="#8c8b8a" data-name="타원 37" rx="17" ry="22.5" transform="translate(1460 166)"/><ellipse id="타원_38" cx="17" cy="22.5" fill="#8c8b8a" data-name="타원 38" rx="17" ry="22.5" transform="translate(1557 166)"/><ellipse id="타원_39" cx="17" cy="22.5" fill="#8c8b8a" data-name="타원 39" rx="17" ry="22.5" transform="translate(1655 166)"/></g><path id="사각형_22" fill="url(#linear-gradient-2)" d="M0,0H527a0,0,0,0,1,0,0V353a25,25,0,0,1-25,25H25A25,25,0,0,1,0,353V0A0,0,0,0,1,0,0Z" data-name="사각형 22" transform="translate(1271 283)"/><path id="합치기_8" fill="url(#linear-gradient-3)" d="M-5804,317V249h68v68Zm-83,0V249h68v68Zm-83,0V249h68v68Zm332-83V166h68v68Zm-83,0V166h68v68Zm-83,0V166h68v68Zm-83,0V166h68v68Zm-83,0V166h68v68Zm332-83V83h68v68Zm-83,0V83h68v68Zm-83,0V83h68v68Zm-83,0V83h68v68Zm-83,0V83h68v68Zm332-83V0h68V68Zm-83,0V0h68V68Zm-83,0V0h68V68Zm-83,0V0h68V68Z" data-name="합치기 8" transform="translate(7303 315)"/><g id="합치기_5" fill="#fff" data-name="합치기 5"><path stroke="none" d="M -5912.5 135.4972534179688 C -5920.0771484375 135.4226226806641 -5927.42724609375 133.6438903808594 -5934.35498046875 130.2074432373047 C -5937.76318359375 128.5168609619141 -5941.04833984375 126.4265670776367 -5944.119140625 123.9946212768555 C -5947.16455078125 121.5822906494141 -5950.0283203125 118.8113098144531 -5952.6318359375 115.7587280273438 C -5955.23193359375 112.7108535766602 -5957.59765625 109.3499984741211 -5959.66259765625 105.7694702148438 C -5961.744140625 102.1560897827148 -5963.5302734375 98.29647064208984 -5964.9716796875 94.29805755615234 C -5967.97705078125 85.96734619140625 -5969.5009765625 77.11965179443359 -5969.5009765625 68.00060272216797 C -5969.5009765625 67.36723327636719 -5969.49267578125 66.6978759765625 -5969.4755859375 66.01109313964844 C -5969.27001953125 57.59507369995117 -5967.7548828125 49.41623687744141 -5964.9716796875 41.70180130004883 C -5963.5283203125 37.70112609863281 -5961.7412109375 33.84145355224609 -5959.6611328125 30.23001861572266 C -5957.5986328125 26.65285491943359 -5955.2333984375 23.29199981689453 -5952.6318359375 20.24098205566406 C -5950.02978515625 17.19034576416016 -5947.1650390625 14.41934585571289 -5944.11767578125 12.00501823425293 C -5941.0458984375 9.571182250976562 -5937.7607421875 7.480946063995361 -5934.353515625 5.792346000671387 C -5927.2734375 2.280582427978516 -5919.7529296875 0.5000004768371582 -5912 0.5000004768371582 C -5904.2470703125 0.5000004768371582 -5896.72607421875 2.280582427978516 -5889.64599609375 5.792273044586182 C -5886.240234375 7.480946063995361 -5882.955078125 9.571236610412598 -5879.8818359375 12.00509166717529 C -5876.8330078125 14.42020034790039 -5873.96875 17.19116401672363 -5871.3681640625 20.24096488952637 C -5868.763671875 23.2951831817627 -5866.3984375 26.6560001373291 -5864.33837890625 30.23011016845703 C -5862.2568359375 33.84450912475586 -5860.4697265625 37.7042350769043 -5859.0263671875 41.70190811157227 C -5856.2998046875 49.26567840576172 -5854.7900390625 57.26948547363281 -5854.53662109375 65.49893188476562 L -5885.580078125 65.50039672851562 C -5885.798828125 61.44761657714844 -5886.46533203125 57.50131988525391 -5887.5625 53.76252746582031 C -5888.88818359375 49.24269104003906 -5890.78564453125 45.1835823059082 -5893.20361328125 41.69812774658203 C -5895.63232421875 38.19592666625977 -5898.46435546875 35.44423675537109 -5901.6201171875 33.51949310302734 C -5904.9052734375 31.51541900634766 -5908.3974609375 30.49925422668457 -5912 30.49925422668457 C -5915.6015625 30.49925422668457 -5919.09423828125 31.51539993286133 -5922.380859375 33.51947402954102 C -5925.53857421875 35.44731140136719 -5928.36962890625 38.19902038574219 -5930.794921875 41.69829177856445 C -5933.2138671875 45.18603515625 -5935.1123046875 49.24514770507812 -5936.43701171875 53.76269149780273 C -5937.53369140625 57.50088882446289 -5938.19970703125 61.44771575927734 -5938.41845703125 65.50190734863281 L -5938.419921875 65.50190734863281 L -5938.443359375 65.97892761230469 C -5938.48046875 66.78934478759766 -5938.49951171875 67.63739776611328 -5938.49951171875 68.49952697753906 C -5938.49951171875 73.61109161376953 -5937.8056640625 78.56929016113281 -5936.43701171875 83.23641967773438 C -5935.11083984375 87.75696563720703 -5933.21240234375 91.81605529785156 -5930.79443359375 95.30097961425781 C -5928.36669921875 98.80318450927734 -5925.5361328125 101.5548934936523 -5922.380859375 103.4795455932617 C -5919.24658203125 105.3908157348633 -5915.9248046875 106.4035263061523 -5912.5 106.4932556152344 L -5912.5 135.4972534179688 Z" transform="translate(7311.001 72)"/><path fill="#707070" stroke="none" d="M -5913 134.98974609375 L -5913 106.9742660522461 C -5916.3408203125 106.8032302856445 -5919.57958984375 105.7733840942383 -5922.6416015625 103.906379699707 C -5925.8564453125 101.945198059082 -5928.73779296875 99.14570617675781 -5931.20556640625 95.58599853515625 C -5933.65380859375 92.05693054199219 -5935.5751953125 87.94929504394531 -5936.91650390625 83.37712860107422 C -5938.298828125 78.66427612304688 -5938.99951171875 73.65872955322266 -5938.99951171875 68.49952697753906 C -5938.99951171875 67.62978363037109 -5938.98046875 66.77397918701172 -5938.94287109375 65.95594787597656 L -5938.8974609375 65.00190734863281 L -5938.89013671875 65.00190734863281 C -5938.64453125 61.07515335083008 -5937.9814453125 57.25153732299805 -5936.91650390625 53.62200164794922 C -5935.5771484375 49.05289077758789 -5933.6552734375 44.94523620605469 -5931.20556640625 41.41347503662109 C -5928.74072265625 37.85656356811523 -5925.859375 35.05710983276367 -5922.64111328125 33.09256362915039 C -5919.27490234375 31.04000091552734 -5915.69482421875 29.99925422668457 -5912 29.99925422668457 C -5908.30419921875 29.99925422668457 -5904.72412109375 31.04003715515137 -5901.35986328125 33.09263610839844 C -5898.14404296875 35.05389022827148 -5895.26171875 37.85334777832031 -5892.79248046875 41.41316223144531 C -5890.34423828125 44.94278335571289 -5888.42333984375 49.05043792724609 -5887.0830078125 53.6216926574707 C -5886.017578125 57.25162124633789 -5885.35400390625 61.07517242431641 -5885.1083984375 65.00037384033203 L -5855.0537109375 64.99895477294922 C -5855.3515625 57.0031852722168 -5856.84521484375 49.22789764404297 -5859.49658203125 41.87170791625977 C -5860.93017578125 37.90156555175781 -5862.705078125 34.06867218017578 -5864.771484375 30.47976493835449 C -5866.81640625 26.93209075927734 -5869.16357421875 23.59643745422363 -5871.74853515625 20.56538200378418 C -5874.328125 17.54025459289551 -5877.1689453125 14.79198265075684 -5880.19189453125 12.39707279205322 C -5883.23828125 9.984872817993164 -5886.49365234375 7.913418769836426 -5889.8681640625 6.240200519561768 C -5896.87841796875 2.763055086135864 -5904.32470703125 1.000000476837158 -5912 1.000000476837158 C -5919.6748046875 1.000000476837158 -5927.12109375 2.763055086135864 -5934.13134765625 6.240327835083008 C -5937.50732421875 7.913418769836426 -5940.7626953125 9.984800338745117 -5943.80712890625 12.39694595336914 C -5946.82958984375 14.79116439819336 -5949.67041015625 17.53945541381836 -5952.25146484375 20.5654182434082 C -5954.83349609375 23.5932731628418 -5957.1806640625 26.92898178100586 -5959.2275390625 30.47960090637207 C -5961.29345703125 34.06562042236328 -5963.06787109375 37.89841842651367 -5964.50146484375 41.87149047851562 C -5967.26611328125 49.53525543212891 -5968.771484375 57.66110992431641 -5968.97607421875 66.02329254150391 C -5968.99267578125 66.70601654052734 -5969.0009765625 67.37127685546875 -5969.0009765625 68.00060272216797 C -5969.0009765625 77.06163787841797 -5967.48681640625 85.85223388671875 -5964.5009765625 94.12850952148438 C -5963.06982421875 98.09928894042969 -5961.29638671875 101.9319839477539 -5959.2294921875 105.5196762084961 C -5957.1796875 109.0738220214844 -5954.83203125 112.4095077514648 -5952.25146484375 115.4342727661133 C -5949.6689453125 118.4622039794922 -5946.82861328125 121.2104721069336 -5943.80908203125 123.602653503418 C -5940.76513671875 126.0129623413086 -5937.509765625 128.0844421386719 -5934.1328125 129.759521484375 C -5927.42724609375 133.0857543945312 -5920.3232421875 134.8434448242188 -5913 134.98974609375 M -5912 135.9997100830078 L -5912.00146484375 135.9997100830078 C -5919.83251953125 135.9997100830078 -5927.427734375 134.2017822265625 -5934.5771484375 130.6553649902344 C -5938.0205078125 128.9473419189453 -5941.33447265625 126.8377838134766 -5944.4296875 124.386604309082 C -5947.5029296875 121.9519119262695 -5950.39013671875 119.1576385498047 -5953.01220703125 116.0831832885742 C -5955.63525390625 113.0087127685547 -5958.017578125 109.6226196289062 -5960.095703125 106.0192718505859 C -5962.1904296875 102.3829650878906 -5963.98974609375 98.49643707275391 -5965.44189453125 94.46759796142578 C -5968.466796875 86.083251953125 -5970.0009765625 77.17901611328125 -5970.0009765625 68.00060272216797 C -5970.0009765625 67.33238220214844 -5969.99169921875 66.65965270996094 -5969.9755859375 65.99890899658203 C -5969.7685546875 57.52372741699219 -5968.24169921875 49.29269027709961 -5965.44189453125 41.53212738037109 C -5963.98828125 37.50327301025391 -5962.18896484375 33.61674499511719 -5960.09423828125 29.98043632507324 C -5958.017578125 26.37860107421875 -5955.63525390625 22.99249076843262 -5953.01220703125 19.91654586791992 C -5950.388671875 16.8405818939209 -5947.50146484375 14.04780006408691 -5944.42822265625 11.61310958862305 C -5941.32861328125 9.157455444335938 -5938.0126953125 7.047873020172119 -5934.57568359375 5.344346046447754 C -5927.42578125 1.797927737236023 -5919.8310546875 4.960493811267952e-07 -5912 4.960493811267952e-07 C -5904.16845703125 4.960493811267952e-07 -5896.57373046875 1.797927737236023 -5889.423828125 5.344346046447754 C -5885.98828125 7.047873020172119 -5882.67236328125 9.157455444335938 -5879.5712890625 11.61310958862305 C -5876.498046875 14.04780006408691 -5873.609375 16.84209060668945 -5870.98779296875 19.91654586791992 C -5868.36572265625 22.99100112915039 -5865.98193359375 26.37709045410156 -5863.9052734375 29.98043632507324 C -5861.81201171875 33.61525344848633 -5860.01123046875 37.50176239013672 -5858.55615234375 41.53212738037109 C -5855.75634765625 49.29916381835938 -5854.2294921875 57.53067398071289 -5854.0224609375 65.99890899658203 L -5886.0556640625 66.00041961669922 C -5886.24462890625 61.82321929931641 -5886.91259765625 57.75241851806641 -5888.04248046875 53.90336227416992 C -5889.35205078125 49.4370002746582 -5891.22607421875 45.42612838745117 -5893.6142578125 41.98310852050781 C -5896.00439453125 38.53707504272461 -5898.78515625 35.83418273925781 -5901.88037109375 33.94636535644531 C -5905.08544921875 31.99112701416016 -5908.49072265625 30.99925422668457 -5912 30.99925422668457 C -5915.5087890625 30.99925422668457 -5918.9140625 31.99112701416016 -5922.12060546875 33.94636535644531 C -5925.2177734375 35.83718109130859 -5927.99853515625 38.54156494140625 -5930.3837890625 41.98310852050781 C -5932.77197265625 45.42612838745117 -5934.6474609375 49.4370002746582 -5935.95703125 53.90336227416992 C -5937.08544921875 57.74942016601562 -5937.75341796875 61.82023620605469 -5937.9423828125 66.00041961669922 L -5937.9423828125 66.00190734863281 L -5937.94384765625 66.00190734863281 C -5937.9814453125 66.81901550292969 -5937.99951171875 67.65853118896484 -5937.99951171875 68.49952697753906 C -5937.99951171875 73.56220245361328 -5937.31298828125 78.47203826904297 -5935.95703125 83.09571075439453 C -5934.64599609375 87.56505584716797 -5932.7705078125 91.575927734375 -5930.3837890625 95.01596069335938 C -5927.9970703125 98.45899963378906 -5925.2177734375 101.1633834838867 -5922.12060546875 103.0526885986328 C -5918.9140625 105.007942199707 -5915.51025390625 105.9998016357422 -5912 105.9998016357422 L -5912 135.9997100830078 Z" transform="translate(7311.001 72)"/></g><g id="빼기_19" fill="#fff" data-name="빼기 19"><path stroke="none" d="M -5942.49951171875 52.49989700317383 C -5946.33740234375 52.49989700317383 -5950.06640625 51.08038711547852 -5953.2841796875 48.39482498168945 C -5956.173828125 45.98305511474609 -5958.52880859375 42.66786193847656 -5960.140625 38.75678634643555 C -5958.80322265625 39.25044631958008 -5957.4150390625 39.50003814697266 -5956.00048828125 39.50003814697266 C -5952.10595703125 39.50003814697266 -5948.45166015625 37.61315536499023 -5945.71044921875 34.18697738647461 C -5942.99560546875 30.79411697387695 -5941.50048828125 26.28851699829102 -5941.50048828125 21.50021743774414 C -5941.50048828125 17.2431468963623 -5942.7177734375 13.11345672607422 -5944.92822265625 9.871856689453125 C -5946.912109375 6.962819576263428 -5949.58740234375 4.913298606872559 -5952.54248046875 4.015083312988281 C -5949.4990234375 1.71179461479187 -5946.04638671875 0.4999966025352478 -5942.49951171875 0.4999966025352478 C -5939.81689453125 0.4999966025352478 -5937.212890625 1.180036544799805 -5934.76025390625 2.521236658096313 C -5932.3798828125 3.822956562042236 -5930.23974609375 5.689056396484375 -5928.39990234375 8.067707061767578 C -5926.55224609375 10.45643615722656 -5925.1005859375 13.23984622955322 -5924.0859375 16.34063720703125 C -5923.03369140625 19.55757713317871 -5922.5 22.97567749023438 -5922.5 26.49994659423828 C -5922.5 30.02421569824219 -5923.03369140625 33.44231796264648 -5924.0859375 36.65928649902344 C -5925.1005859375 39.76004791259766 -5926.55224609375 42.54345703125 -5928.39990234375 44.93216705322266 C -5930.23974609375 47.31083679199219 -5932.3798828125 49.17693710327148 -5934.76025390625 50.47864532470703 C -5937.212890625 51.81985473632812 -5939.81689453125 52.49989700317383 -5942.49951171875 52.49989700317383 Z" transform="translate(7334 164)"/><path fill="#707070" stroke="none" d="M -5942.49951171875 51.99989700317383 C -5939.9013671875 51.99989700317383 -5937.37841796875 51.34048843383789 -5935.00048828125 50.03994750976562 C -5932.6806640625 48.7714958190918 -5930.5927734375 46.95007705688477 -5928.79541015625 44.62624740600586 C -5926.982421875 42.28286743164062 -5925.55810546875 39.55006790161133 -5924.56103515625 36.50382614135742 C -5923.525390625 33.33711624145508 -5923 29.97132682800293 -5923 26.49994659423828 C -5923 23.02856636047363 -5923.525390625 19.66277694702148 -5924.56103515625 16.49613571166992 C -5925.55810546875 13.44982624053955 -5926.982421875 10.71702671051025 -5928.79541015625 8.373616218566895 C -5930.5927734375 6.049816608428955 -5932.6806640625 4.228396415710449 -5935.00048828125 2.959916591644287 C -5937.37841796875 1.659406542778015 -5939.9013671875 0.9999966025352478 -5942.49951171875 0.9999966025352478 C -5945.6396484375 0.9999966025352478 -5948.70703125 1.982695579528809 -5951.4677734375 3.858971118927002 C -5948.77490234375 4.910075664520264 -5946.3544921875 6.893142223358154 -5944.51513671875 9.590167045593262 C -5942.24853515625 12.9139461517334 -5941.00048828125 17.14368629455566 -5941.00048828125 21.50021743774414 C -5941.00048828125 26.40163612365723 -5942.53466796875 31.0181770324707 -5945.3203125 34.49931716918945 C -5948.15771484375 38.04650497436523 -5951.95068359375 40.00003814697266 -5956.00048828125 40.00003814697266 C -5957.1005859375 40.00003814697266 -5958.1845703125 39.8553581237793 -5959.24267578125 39.56831741333008 C -5957.6865234375 42.96917343139648 -5955.54150390625 45.85940933227539 -5952.9638671875 48.01096725463867 C -5949.83740234375 50.62054824829102 -5946.21875 51.99989700317383 -5942.49951171875 51.99989700317383 M -5942.49951171875 52.99989700317383 C -5946.45556640625 52.99989700317383 -5950.2958984375 51.54022598266602 -5953.6044921875 48.7786865234375 C -5956.82763671875 46.08873748779297 -5959.3974609375 42.30402755737305 -5961.0361328125 37.83368682861328 C -5959.43115234375 38.60720825195312 -5957.7373046875 39.00003814697266 -5956.00048828125 39.00003814697266 C -5952.2607421875 39.00003814697266 -5948.7451171875 37.1797981262207 -5946.10107421875 33.87463760375977 C -5943.45654296875 30.56976699829102 -5942.00048828125 26.17511749267578 -5942.00048828125 21.50021743774414 C -5942.00048828125 17.34251594543457 -5943.18701171875 13.31285667419434 -5945.34130859375 10.15354633331299 C -5947.47216796875 7.029386520385742 -5950.41845703125 4.932296752929688 -5953.6376953125 4.248586654663086 C -5950.3203125 1.468526601791382 -5946.46875 -3.405761617614189e-06 -5942.49951171875 -3.405761617614189e-06 C -5939.73193359375 -3.405761617614189e-06 -5937.04736328125 0.700666606426239 -5934.5205078125 2.082546710968018 C -5932.0791015625 3.417476654052734 -5929.88671875 5.328246593475342 -5928.00439453125 7.761796474456787 C -5926.1220703125 10.19516658782959 -5924.6435546875 13.0291862487793 -5923.61083984375 16.18513679504395 C -5922.5419921875 19.4522762298584 -5922 22.92267608642578 -5922 26.49994659423828 C -5922 30.07721710205078 -5922.5419921875 33.54761505126953 -5923.61083984375 36.81475830078125 C -5924.6435546875 39.97070693969727 -5926.1220703125 42.80472564697266 -5928.00439453125 45.23809814453125 C -5929.88671875 47.67164611816406 -5932.0791015625 49.58241653442383 -5934.5205078125 50.9173469543457 C -5937.04736328125 52.29922485351562 -5939.73193359375 52.99989700317383 -5942.49951171875 52.99989700317383 Z" transform="translate(7334 164)"/></g><g id="빼기_20" fill="#fff" data-name="빼기 20"><path stroke="none" d="M -5942.49951171875 52.49989700317383 C -5946.33740234375 52.49989700317383 -5950.06640625 51.08038711547852 -5953.2841796875 48.39482498168945 C -5956.173828125 45.98305511474609 -5958.52880859375 42.66786193847656 -5960.140625 38.75678634643555 C -5958.80322265625 39.25044631958008 -5957.4150390625 39.50003814697266 -5956.00048828125 39.50003814697266 C -5952.10595703125 39.50003814697266 -5948.45166015625 37.61315536499023 -5945.71044921875 34.18697738647461 C -5942.99560546875 30.79411697387695 -5941.50048828125 26.28851699829102 -5941.50048828125 21.50021743774414 C -5941.50048828125 17.2431468963623 -5942.7177734375 13.11345672607422 -5944.92822265625 9.871856689453125 C -5946.912109375 6.962819576263428 -5949.58740234375 4.913298606872559 -5952.54248046875 4.015083312988281 C -5949.4990234375 1.71179461479187 -5946.04638671875 0.4999966025352478 -5942.49951171875 0.4999966025352478 C -5939.81689453125 0.4999966025352478 -5937.212890625 1.180036544799805 -5934.76025390625 2.521236658096313 C -5932.3798828125 3.822956562042236 -5930.23974609375 5.689056396484375 -5928.39990234375 8.067707061767578 C -5926.55224609375 10.45643615722656 -5925.1005859375 13.23984622955322 -5924.0859375 16.34063720703125 C -5923.03369140625 19.55757713317871 -5922.5 22.97567749023438 -5922.5 26.49994659423828 C -5922.5 30.02421569824219 -5923.03369140625 33.44231796264648 -5924.0859375 36.65928649902344 C -5925.1005859375 39.76004791259766 -5926.55224609375 42.54345703125 -5928.39990234375 44.93216705322266 C -5930.23974609375 47.31083679199219 -5932.3798828125 49.17693710327148 -5934.76025390625 50.47864532470703 C -5937.212890625 51.81985473632812 -5939.81689453125 52.49989700317383 -5942.49951171875 52.49989700317383 Z" transform="translate(7334 164)"/><path fill="#707070" stroke="none" d="M -5942.49951171875 51.99989700317383 C -5939.9013671875 51.99989700317383 -5937.37841796875 51.34048843383789 -5935.00048828125 50.03994750976562 C -5932.6806640625 48.7714958190918 -5930.5927734375 46.95007705688477 -5928.79541015625 44.62624740600586 C -5926.982421875 42.28286743164062 -5925.55810546875 39.55006790161133 -5924.56103515625 36.50382614135742 C -5923.525390625 33.33711624145508 -5923 29.97132682800293 -5923 26.49994659423828 C -5923 23.02856636047363 -5923.525390625 19.66277694702148 -5924.56103515625 16.49613571166992 C -5925.55810546875 13.44982624053955 -5926.982421875 10.71702671051025 -5928.79541015625 8.373616218566895 C -5930.5927734375 6.049816608428955 -5932.6806640625 4.228396415710449 -5935.00048828125 2.959916591644287 C -5937.37841796875 1.659406542778015 -5939.9013671875 0.9999966025352478 -5942.49951171875 0.9999966025352478 C -5945.6396484375 0.9999966025352478 -5948.70703125 1.982695579528809 -5951.4677734375 3.858971118927002 C -5948.77490234375 4.910075664520264 -5946.3544921875 6.893142223358154 -5944.51513671875 9.590167045593262 C -5942.24853515625 12.9139461517334 -5941.00048828125 17.14368629455566 -5941.00048828125 21.50021743774414 C -5941.00048828125 26.40163612365723 -5942.53466796875 31.0181770324707 -5945.3203125 34.49931716918945 C -5948.15771484375 38.04650497436523 -5951.95068359375 40.00003814697266 -5956.00048828125 40.00003814697266 C -5957.1005859375 40.00003814697266 -5958.1845703125 39.8553581237793 -5959.24267578125 39.56831741333008 C -5957.6865234375 42.96917343139648 -5955.54150390625 45.85940933227539 -5952.9638671875 48.01096725463867 C -5949.83740234375 50.62054824829102 -5946.21875 51.99989700317383 -5942.49951171875 51.99989700317383 M -5942.49951171875 52.99989700317383 C -5946.45556640625 52.99989700317383 -5950.2958984375 51.54022598266602 -5953.6044921875 48.7786865234375 C -5956.82763671875 46.08873748779297 -5959.3974609375 42.30402755737305 -5961.0361328125 37.83368682861328 C -5959.43115234375 38.60720825195312 -5957.7373046875 39.00003814697266 -5956.00048828125 39.00003814697266 C -5952.2607421875 39.00003814697266 -5948.7451171875 37.1797981262207 -5946.10107421875 33.87463760375977 C -5943.45654296875 30.56976699829102 -5942.00048828125 26.17511749267578 -5942.00048828125 21.50021743774414 C -5942.00048828125 17.34251594543457 -5943.18701171875 13.31285667419434 -5945.34130859375 10.15354633331299 C -5947.47216796875 7.029386520385742 -5950.41845703125 4.932296752929688 -5953.6376953125 4.248586654663086 C -5950.3203125 1.468526601791382 -5946.46875 -3.405761617614189e-06 -5942.49951171875 -3.405761617614189e-06 C -5939.73193359375 -3.405761617614189e-06 -5937.04736328125 0.700666606426239 -5934.5205078125 2.082546710968018 C -5932.0791015625 3.417476654052734 -5929.88671875 5.328246593475342 -5928.00439453125 7.761796474456787 C -5926.1220703125 10.19516658782959 -5924.6435546875 13.0291862487793 -5923.61083984375 16.18513679504395 C -5922.5419921875 19.4522762298584 -5922 22.92267608642578 -5922 26.49994659423828 C -5922 30.07721710205078 -5922.5419921875 33.54761505126953 -5923.61083984375 36.81475830078125 C -5924.6435546875 39.97070693969727 -5926.1220703125 42.80472564697266 -5928.00439453125 45.23809814453125 C -5929.88671875 47.67164611816406 -5932.0791015625 49.58241653442383 -5934.5205078125 50.9173469543457 C -5937.04736328125 52.29922485351562 -5939.73193359375 52.99989700317383 -5942.49951171875 52.99989700317383 Z" transform="translate(7334 164)"/></g><g id="빼기_21" fill="#fff" data-name="빼기 21"><path stroke="none" d="M -5942.49951171875 52.49989700317383 C -5946.33740234375 52.49989700317383 -5950.06640625 51.08038711547852 -5953.2841796875 48.39482498168945 C -5956.173828125 45.98305511474609 -5958.52880859375 42.66786193847656 -5960.140625 38.75678634643555 C -5958.80322265625 39.25044631958008 -5957.4150390625 39.50003814697266 -5956.00048828125 39.50003814697266 C -5952.10595703125 39.50003814697266 -5948.45166015625 37.61315536499023 -5945.71044921875 34.18697738647461 C -5942.99560546875 30.79411697387695 -5941.50048828125 26.28851699829102 -5941.50048828125 21.50021743774414 C -5941.50048828125 17.2431468963623 -5942.7177734375 13.11345672607422 -5944.92822265625 9.871856689453125 C -5946.912109375 6.962819576263428 -5949.58740234375 4.913298606872559 -5952.54248046875 4.015083312988281 C -5949.4990234375 1.71179461479187 -5946.04638671875 0.4999966025352478 -5942.49951171875 0.4999966025352478 C -5939.81689453125 0.4999966025352478 -5937.212890625 1.180036544799805 -5934.76025390625 2.521236658096313 C -5932.3798828125 3.822956562042236 -5930.23974609375 5.689056396484375 -5928.39990234375 8.067707061767578 C -5926.55224609375 10.45643615722656 -5925.1005859375 13.23984622955322 -5924.0859375 16.34063720703125 C -5923.03369140625 19.55757713317871 -5922.5 22.97567749023438 -5922.5 26.49994659423828 C -5922.5 30.02421569824219 -5923.03369140625 33.44231796264648 -5924.0859375 36.65928649902344 C -5925.1005859375 39.76004791259766 -5926.55224609375 42.54345703125 -5928.39990234375 44.93216705322266 C -5930.23974609375 47.31083679199219 -5932.3798828125 49.17693710327148 -5934.76025390625 50.47864532470703 C -5937.212890625 51.81985473632812 -5939.81689453125 52.49989700317383 -5942.49951171875 52.49989700317383 Z" transform="translate(7334 164)"/><path fill="#707070" stroke="none" d="M -5942.49951171875 51.99989700317383 C -5939.9013671875 51.99989700317383 -5937.37841796875 51.34048843383789 -5935.00048828125 50.03994750976562 C -5932.6806640625 48.7714958190918 -5930.5927734375 46.95007705688477 -5928.79541015625 44.62624740600586 C -5926.982421875 42.28286743164062 -5925.55810546875 39.55006790161133 -5924.56103515625 36.50382614135742 C -5923.525390625 33.33711624145508 -5923 29.97132682800293 -5923 26.49994659423828 C -5923 23.02856636047363 -5923.525390625 19.66277694702148 -5924.56103515625 16.49613571166992 C -5925.55810546875 13.44982624053955 -5926.982421875 10.71702671051025 -5928.79541015625 8.373616218566895 C -5930.5927734375 6.049816608428955 -5932.6806640625 4.228396415710449 -5935.00048828125 2.959916591644287 C -5937.37841796875 1.659406542778015 -5939.9013671875 0.9999966025352478 -5942.49951171875 0.9999966025352478 C -5945.6396484375 0.9999966025352478 -5948.70703125 1.982695579528809 -5951.4677734375 3.858971118927002 C -5948.77490234375 4.910075664520264 -5946.3544921875 6.893142223358154 -5944.51513671875 9.590167045593262 C -5942.24853515625 12.9139461517334 -5941.00048828125 17.14368629455566 -5941.00048828125 21.50021743774414 C -5941.00048828125 26.40163612365723 -5942.53466796875 31.0181770324707 -5945.3203125 34.49931716918945 C -5948.15771484375 38.04650497436523 -5951.95068359375 40.00003814697266 -5956.00048828125 40.00003814697266 C -5957.1005859375 40.00003814697266 -5958.1845703125 39.8553581237793 -5959.24267578125 39.56831741333008 C -5957.6865234375 42.96917343139648 -5955.54150390625 45.85940933227539 -5952.9638671875 48.01096725463867 C -5949.83740234375 50.62054824829102 -5946.21875 51.99989700317383 -5942.49951171875 51.99989700317383 M -5942.49951171875 52.99989700317383 C -5946.45556640625 52.99989700317383 -5950.2958984375 51.54022598266602 -5953.6044921875 48.7786865234375 C -5956.82763671875 46.08873748779297 -5959.3974609375 42.30402755737305 -5961.0361328125 37.83368682861328 C -5959.43115234375 38.60720825195312 -5957.7373046875 39.00003814697266 -5956.00048828125 39.00003814697266 C -5952.2607421875 39.00003814697266 -5948.7451171875 37.1797981262207 -5946.10107421875 33.87463760375977 C -5943.45654296875 30.56976699829102 -5942.00048828125 26.17511749267578 -5942.00048828125 21.50021743774414 C -5942.00048828125 17.34251594543457 -5943.18701171875 13.31285667419434 -5945.34130859375 10.15354633331299 C -5947.47216796875 7.029386520385742 -5950.41845703125 4.932296752929688 -5953.6376953125 4.248586654663086 C -5950.3203125 1.468526601791382 -5946.46875 -3.405761617614189e-06 -5942.49951171875 -3.405761617614189e-06 C -5939.73193359375 -3.405761617614189e-06 -5937.04736328125 0.700666606426239 -5934.5205078125 2.082546710968018 C -5932.0791015625 3.417476654052734 -5929.88671875 5.328246593475342 -5928.00439453125 7.761796474456787 C -5926.1220703125 10.19516658782959 -5924.6435546875 13.0291862487793 -5923.61083984375 16.18513679504395 C -5922.5419921875 19.4522762298584 -5922 22.92267608642578 -5922 26.49994659423828 C -5922 30.07721710205078 -5922.5419921875 33.54761505126953 -5923.61083984375 36.81475830078125 C -5924.6435546875 39.97070693969727 -5926.1220703125 42.80472564697266 -5928.00439453125 45.23809814453125 C -5929.88671875 47.67164611816406 -5932.0791015625 49.58241653442383 -5934.5205078125 50.9173469543457 C -5937.04736328125 52.29922485351562 -5939.73193359375 52.99989700317383 -5942.49951171875 52.99989700317383 Z" transform="translate(7334 164)"/></g><g id="합치기_7" fill="url(#linear-gradient-4)" data-name="합치기 7" transform="translate(7311.001 72)"><path stroke="none" d="M -5912.5 135.4972534179688 C -5920.0771484375 135.4226226806641 -5927.42724609375 133.6438903808594 -5934.35498046875 130.2074432373047 C -5937.76318359375 128.5168609619141 -5941.04833984375 126.4265670776367 -5944.119140625 123.9946212768555 C -5947.16455078125 121.5822906494141 -5950.0283203125 118.8113098144531 -5952.6318359375 115.7587280273438 C -5955.23193359375 112.7108535766602 -5957.59765625 109.3499984741211 -5959.66259765625 105.7694702148438 C -5961.744140625 102.1560897827148 -5963.5302734375 98.29647064208984 -5964.9716796875 94.29805755615234 C -5967.97705078125 85.96734619140625 -5969.5009765625 77.11965179443359 -5969.5009765625 68.00060272216797 C -5969.5009765625 67.36723327636719 -5969.49267578125 66.6978759765625 -5969.4755859375 66.01109313964844 C -5969.27001953125 57.59507369995117 -5967.7548828125 49.41623687744141 -5964.9716796875 41.70180130004883 C -5963.5283203125 37.70112609863281 -5961.7412109375 33.84145355224609 -5959.6611328125 30.23001861572266 C -5957.5986328125 26.65285491943359 -5955.2333984375 23.29199981689453 -5952.6318359375 20.24098205566406 C -5950.02978515625 17.19034576416016 -5947.1650390625 14.41934585571289 -5944.11767578125 12.00501823425293 C -5941.0458984375 9.571182250976562 -5937.7607421875 7.480946063995361 -5934.353515625 5.792346000671387 C -5927.2734375 2.280582427978516 -5919.7529296875 0.5000004768371582 -5912 0.5000004768371582 C -5904.2470703125 0.5000004768371582 -5896.72607421875 2.280582427978516 -5889.64599609375 5.792273044586182 C -5886.240234375 7.480946063995361 -5882.955078125 9.571236610412598 -5879.8818359375 12.00509166717529 C -5876.8330078125 14.42020034790039 -5873.96875 17.19116401672363 -5871.3681640625 20.24096488952637 C -5868.763671875 23.2951831817627 -5866.3984375 26.6560001373291 -5864.33837890625 30.23011016845703 C -5862.2568359375 33.84450912475586 -5860.4697265625 37.7042350769043 -5859.0263671875 41.70190811157227 C -5856.2998046875 49.26567840576172 -5854.7900390625 57.26948547363281 -5854.53662109375 65.49893188476562 L -5885.580078125 65.50039672851562 C -5885.798828125 61.44761657714844 -5886.46533203125 57.50131988525391 -5887.5625 53.76252746582031 C -5888.88818359375 49.24269104003906 -5890.78564453125 45.1835823059082 -5893.20361328125 41.69812774658203 C -5895.63232421875 38.19592666625977 -5898.46435546875 35.44423675537109 -5901.6201171875 33.51949310302734 C -5904.9052734375 31.51541900634766 -5908.3974609375 30.49925422668457 -5912 30.49925422668457 C -5915.6015625 30.49925422668457 -5919.09423828125 31.51539993286133 -5922.380859375 33.51947402954102 C -5925.53857421875 35.44731140136719 -5928.36962890625 38.19902038574219 -5930.794921875 41.69829177856445 C -5933.2138671875 45.18603515625 -5935.1123046875 49.24514770507812 -5936.43701171875 53.76269149780273 C -5937.53369140625 57.50088882446289 -5938.19970703125 61.44771575927734 -5938.41845703125 65.50190734863281 L -5938.419921875 65.50190734863281 L -5938.443359375 65.97892761230469 C -5938.48046875 66.78934478759766 -5938.49951171875 67.63739776611328 -5938.49951171875 68.49952697753906 C -5938.49951171875 73.61109161376953 -5937.8056640625 78.56929016113281 -5936.43701171875 83.23641967773438 C -5935.11083984375 87.75696563720703 -5933.21240234375 91.81605529785156 -5930.79443359375 95.30097961425781 C -5928.36669921875 98.80318450927734 -5925.5361328125 101.5548934936523 -5922.380859375 103.4795455932617 C -5919.24658203125 105.3908157348633 -5915.9248046875 106.4035263061523 -5912.5 106.4932556152344 L -5912.5 135.4972534179688 Z"/><path fill="#707070" stroke="none" d="M -5913 134.98974609375 L -5913 106.9742660522461 C -5916.3408203125 106.8032302856445 -5919.57958984375 105.7733840942383 -5922.6416015625 103.906379699707 C -5925.8564453125 101.945198059082 -5928.73779296875 99.14570617675781 -5931.20556640625 95.58599853515625 C -5933.65380859375 92.05693054199219 -5935.5751953125 87.94929504394531 -5936.91650390625 83.37712860107422 C -5938.298828125 78.66427612304688 -5938.99951171875 73.65872955322266 -5938.99951171875 68.49952697753906 C -5938.99951171875 67.62978363037109 -5938.98046875 66.77397918701172 -5938.94287109375 65.95594787597656 L -5938.8974609375 65.00190734863281 L -5938.89013671875 65.00190734863281 C -5938.64453125 61.07515335083008 -5937.9814453125 57.25153732299805 -5936.91650390625 53.62200164794922 C -5935.5771484375 49.05289077758789 -5933.6552734375 44.94523620605469 -5931.20556640625 41.41347503662109 C -5928.74072265625 37.85656356811523 -5925.859375 35.05710983276367 -5922.64111328125 33.09256362915039 C -5919.27490234375 31.04000091552734 -5915.69482421875 29.99925422668457 -5912 29.99925422668457 C -5908.30419921875 29.99925422668457 -5904.72412109375 31.04003715515137 -5901.35986328125 33.09263610839844 C -5898.14404296875 35.05389022827148 -5895.26171875 37.85334777832031 -5892.79248046875 41.41316223144531 C -5890.34423828125 44.94278335571289 -5888.42333984375 49.05043792724609 -5887.0830078125 53.6216926574707 C -5886.017578125 57.25162124633789 -5885.35400390625 61.07517242431641 -5885.1083984375 65.00037384033203 L -5855.0537109375 64.99895477294922 C -5855.3515625 57.0031852722168 -5856.84521484375 49.22789764404297 -5859.49658203125 41.87170791625977 C -5860.93017578125 37.90156555175781 -5862.705078125 34.06867218017578 -5864.771484375 30.47976493835449 C -5866.81640625 26.93209075927734 -5869.16357421875 23.59643745422363 -5871.74853515625 20.56538200378418 C -5874.328125 17.54025459289551 -5877.1689453125 14.79198265075684 -5880.19189453125 12.39707279205322 C -5883.23828125 9.984872817993164 -5886.49365234375 7.913418769836426 -5889.8681640625 6.240200519561768 C -5896.87841796875 2.763055086135864 -5904.32470703125 1.000000476837158 -5912 1.000000476837158 C -5919.6748046875 1.000000476837158 -5927.12109375 2.763055086135864 -5934.13134765625 6.240327835083008 C -5937.50732421875 7.913418769836426 -5940.7626953125 9.984800338745117 -5943.80712890625 12.39694595336914 C -5946.82958984375 14.79116439819336 -5949.67041015625 17.53945541381836 -5952.25146484375 20.5654182434082 C -5954.83349609375 23.5932731628418 -5957.1806640625 26.92898178100586 -5959.2275390625 30.47960090637207 C -5961.29345703125 34.06562042236328 -5963.06787109375 37.89841842651367 -5964.50146484375 41.87149047851562 C -5967.26611328125 49.53525543212891 -5968.771484375 57.66110992431641 -5968.97607421875 66.02329254150391 C -5968.99267578125 66.70601654052734 -5969.0009765625 67.37127685546875 -5969.0009765625 68.00060272216797 C -5969.0009765625 77.06163787841797 -5967.48681640625 85.85223388671875 -5964.5009765625 94.12850952148438 C -5963.06982421875 98.09928894042969 -5961.29638671875 101.9319839477539 -5959.2294921875 105.5196762084961 C -5957.1796875 109.0738220214844 -5954.83203125 112.4095077514648 -5952.25146484375 115.4342727661133 C -5949.6689453125 118.4622039794922 -5946.82861328125 121.2104721069336 -5943.80908203125 123.602653503418 C -5940.76513671875 126.0129623413086 -5937.509765625 128.0844421386719 -5934.1328125 129.759521484375 C -5927.42724609375 133.0857543945312 -5920.3232421875 134.8434448242188 -5913 134.98974609375 M -5912 135.9997100830078 L -5912.00146484375 135.9997100830078 C -5919.83251953125 135.9997100830078 -5927.427734375 134.2017822265625 -5934.5771484375 130.6553649902344 C -5938.0205078125 128.9473419189453 -5941.33447265625 126.8377838134766 -5944.4296875 124.386604309082 C -5947.5029296875 121.9519119262695 -5950.39013671875 119.1576385498047 -5953.01220703125 116.0831832885742 C -5955.63525390625 113.0087127685547 -5958.017578125 109.6226196289062 -5960.095703125 106.0192718505859 C -5962.1904296875 102.3829650878906 -5963.98974609375 98.49643707275391 -5965.44189453125 94.46759796142578 C -5968.466796875 86.083251953125 -5970.0009765625 77.17901611328125 -5970.0009765625 68.00060272216797 C -5970.0009765625 67.33238220214844 -5969.99169921875 66.65965270996094 -5969.9755859375 65.99890899658203 C -5969.7685546875 57.52372741699219 -5968.24169921875 49.29269027709961 -5965.44189453125 41.53212738037109 C -5963.98828125 37.50327301025391 -5962.18896484375 33.61674499511719 -5960.09423828125 29.98043632507324 C -5958.017578125 26.37860107421875 -5955.63525390625 22.99249076843262 -5953.01220703125 19.91654586791992 C -5950.388671875 16.8405818939209 -5947.50146484375 14.04780006408691 -5944.42822265625 11.61310958862305 C -5941.32861328125 9.157455444335938 -5938.0126953125 7.047873020172119 -5934.57568359375 5.344346046447754 C -5927.42578125 1.797927737236023 -5919.8310546875 4.960493811267952e-07 -5912 4.960493811267952e-07 C -5904.16845703125 4.960493811267952e-07 -5896.57373046875 1.797927737236023 -5889.423828125 5.344346046447754 C -5885.98828125 7.047873020172119 -5882.67236328125 9.157455444335938 -5879.5712890625 11.61310958862305 C -5876.498046875 14.04780006408691 -5873.609375 16.84209060668945 -5870.98779296875 19.91654586791992 C -5868.36572265625 22.99100112915039 -5865.98193359375 26.37709045410156 -5863.9052734375 29.98043632507324 C -5861.81201171875 33.61525344848633 -5860.01123046875 37.50176239013672 -5858.55615234375 41.53212738037109 C -5855.75634765625 49.29916381835938 -5854.2294921875 57.53067398071289 -5854.0224609375 65.99890899658203 L -5886.0556640625 66.00041961669922 C -5886.24462890625 61.82321929931641 -5886.91259765625 57.75241851806641 -5888.04248046875 53.90336227416992 C -5889.35205078125 49.4370002746582 -5891.22607421875 45.42612838745117 -5893.6142578125 41.98310852050781 C -5896.00439453125 38.53707504272461 -5898.78515625 35.83418273925781 -5901.88037109375 33.94636535644531 C -5905.08544921875 31.99112701416016 -5908.49072265625 30.99925422668457 -5912 30.99925422668457 C -5915.5087890625 30.99925422668457 -5918.9140625 31.99112701416016 -5922.12060546875 33.94636535644531 C -5925.2177734375 35.83718109130859 -5927.99853515625 38.54156494140625 -5930.3837890625 41.98310852050781 C -5932.77197265625 45.42612838745117 -5934.6474609375 49.4370002746582 -5935.95703125 53.90336227416992 C -5937.08544921875 57.74942016601562 -5937.75341796875 61.82023620605469 -5937.9423828125 66.00041961669922 L -5937.9423828125 66.00190734863281 L -5937.94384765625 66.00190734863281 C -5937.9814453125 66.81901550292969 -5937.99951171875 67.65853118896484 -5937.99951171875 68.49952697753906 C -5937.99951171875 73.56220245361328 -5937.31298828125 78.47203826904297 -5935.95703125 83.09571075439453 C -5934.64599609375 87.56505584716797 -5932.7705078125 91.575927734375 -5930.3837890625 95.01596069335938 C -5927.9970703125 98.45899963378906 -5925.2177734375 101.1633834838867 -5922.12060546875 103.0526885986328 C -5918.9140625 105.007942199707 -5915.51025390625 105.9998016357422 -5912 105.9998016357422 L -5912 135.9997100830078 Z"/></g><g id="빼기_22" fill="url(#linear-gradient-5)" data-name="빼기 22" transform="translate(7334 164)"><path stroke="none" d="M -5942.49951171875 52.49989700317383 C -5946.33740234375 52.49989700317383 -5950.06640625 51.08038711547852 -5953.2841796875 48.39482498168945 C -5956.173828125 45.98305511474609 -5958.52880859375 42.66786193847656 -5960.140625 38.75678634643555 C -5958.80322265625 39.25044631958008 -5957.4150390625 39.50003814697266 -5956.00048828125 39.50003814697266 C -5952.10595703125 39.50003814697266 -5948.45166015625 37.61315536499023 -5945.71044921875 34.18697738647461 C -5942.99560546875 30.79411697387695 -5941.50048828125 26.28851699829102 -5941.50048828125 21.50021743774414 C -5941.50048828125 17.2431468963623 -5942.7177734375 13.11345672607422 -5944.92822265625 9.871856689453125 C -5946.912109375 6.962819576263428 -5949.58740234375 4.913298606872559 -5952.54248046875 4.015083312988281 C -5949.4990234375 1.71179461479187 -5946.04638671875 0.4999966025352478 -5942.49951171875 0.4999966025352478 C -5939.81689453125 0.4999966025352478 -5937.212890625 1.180036544799805 -5934.76025390625 2.521236658096313 C -5932.3798828125 3.822956562042236 -5930.23974609375 5.689056396484375 -5928.39990234375 8.067707061767578 C -5926.55224609375 10.45643615722656 -5925.1005859375 13.23984622955322 -5924.0859375 16.34063720703125 C -5923.03369140625 19.55757713317871 -5922.5 22.97567749023438 -5922.5 26.49994659423828 C -5922.5 30.02421569824219 -5923.03369140625 33.44231796264648 -5924.0859375 36.65928649902344 C -5925.1005859375 39.76004791259766 -5926.55224609375 42.54345703125 -5928.39990234375 44.93216705322266 C -5930.23974609375 47.31083679199219 -5932.3798828125 49.17693710327148 -5934.76025390625 50.47864532470703 C -5937.212890625 51.81985473632812 -5939.81689453125 52.49989700317383 -5942.49951171875 52.49989700317383 Z"/><path fill="#707070" stroke="none" d="M -5942.49951171875 51.99989700317383 C -5939.9013671875 51.99989700317383 -5937.37841796875 51.34048843383789 -5935.00048828125 50.03994750976562 C -5932.6806640625 48.7714958190918 -5930.5927734375 46.95007705688477 -5928.79541015625 44.62624740600586 C -5926.982421875 42.28286743164062 -5925.55810546875 39.55006790161133 -5924.56103515625 36.50382614135742 C -5923.525390625 33.33711624145508 -5923 29.97132682800293 -5923 26.49994659423828 C -5923 23.02856636047363 -5923.525390625 19.66277694702148 -5924.56103515625 16.49613571166992 C -5925.55810546875 13.44982624053955 -5926.982421875 10.71702671051025 -5928.79541015625 8.373616218566895 C -5930.5927734375 6.049816608428955 -5932.6806640625 4.228396415710449 -5935.00048828125 2.959916591644287 C -5937.37841796875 1.659406542778015 -5939.9013671875 0.9999966025352478 -5942.49951171875 0.9999966025352478 C -5945.6396484375 0.9999966025352478 -5948.70703125 1.982695579528809 -5951.4677734375 3.858971118927002 C -5948.77490234375 4.910075664520264 -5946.3544921875 6.893142223358154 -5944.51513671875 9.590167045593262 C -5942.24853515625 12.9139461517334 -5941.00048828125 17.14368629455566 -5941.00048828125 21.50021743774414 C -5941.00048828125 26.40163612365723 -5942.53466796875 31.0181770324707 -5945.3203125 34.49931716918945 C -5948.15771484375 38.04650497436523 -5951.95068359375 40.00003814697266 -5956.00048828125 40.00003814697266 C -5957.1005859375 40.00003814697266 -5958.1845703125 39.8553581237793 -5959.24267578125 39.56831741333008 C -5957.6865234375 42.96917343139648 -5955.54150390625 45.85940933227539 -5952.9638671875 48.01096725463867 C -5949.83740234375 50.62054824829102 -5946.21875 51.99989700317383 -5942.49951171875 51.99989700317383 M -5942.49951171875 52.99989700317383 C -5946.45556640625 52.99989700317383 -5950.2958984375 51.54022598266602 -5953.6044921875 48.7786865234375 C -5956.82763671875 46.08873748779297 -5959.3974609375 42.30402755737305 -5961.0361328125 37.83368682861328 C -5959.43115234375 38.60720825195312 -5957.7373046875 39.00003814697266 -5956.00048828125 39.00003814697266 C -5952.2607421875 39.00003814697266 -5948.7451171875 37.1797981262207 -5946.10107421875 33.87463760375977 C -5943.45654296875 30.56976699829102 -5942.00048828125 26.17511749267578 -5942.00048828125 21.50021743774414 C -5942.00048828125 17.34251594543457 -5943.18701171875 13.31285667419434 -5945.34130859375 10.15354633331299 C -5947.47216796875 7.029386520385742 -5950.41845703125 4.932296752929688 -5953.6376953125 4.248586654663086 C -5950.3203125 1.468526601791382 -5946.46875 -3.405761617614189e-06 -5942.49951171875 -3.405761617614189e-06 C -5939.73193359375 -3.405761617614189e-06 -5937.04736328125 0.700666606426239 -5934.5205078125 2.082546710968018 C -5932.0791015625 3.417476654052734 -5929.88671875 5.328246593475342 -5928.00439453125 7.761796474456787 C -5926.1220703125 10.19516658782959 -5924.6435546875 13.0291862487793 -5923.61083984375 16.18513679504395 C -5922.5419921875 19.4522762298584 -5922 22.92267608642578 -5922 26.49994659423828 C -5922 30.07721710205078 -5922.5419921875 33.54761505126953 -5923.61083984375 36.81475830078125 C -5924.6435546875 39.97070693969727 -5926.1220703125 42.80472564697266 -5928.00439453125 45.23809814453125 C -5929.88671875 47.67164611816406 -5932.0791015625 49.58241653442383 -5934.5205078125 50.9173469543457 C -5937.04736328125 52.29922485351562 -5939.73193359375 52.99989700317383 -5942.49951171875 52.99989700317383 Z"/></g><path id="합치기_7-2" fill="url(#linear-gradient-4)" d="M-5912,136a50.4,50.4,0,0,1-22.576-5.344,56,56,0,0,1-9.853-6.269,61.6,61.6,0,0,1-8.583-8.3,67.45,67.45,0,0,1-7.083-10.064,72.339,72.339,0,0,1-5.346-11.552A77.744,77.744,0,0,1-5970,68c0-.668.009-1.341.025-2h0a77.523,77.523,0,0,1,4.534-24.467,72.473,72.473,0,0,1,5.348-11.552,67.489,67.489,0,0,1,7.082-10.064,61.6,61.6,0,0,1,8.584-8.3,55.877,55.877,0,0,1,9.853-6.269A50.4,50.4,0,0,1-5912,0a50.4,50.4,0,0,1,22.576,5.344,55.984,55.984,0,0,1,9.853,6.269,61.576,61.576,0,0,1,8.583,8.3,67.408,67.408,0,0,1,7.083,10.064,72.615,72.615,0,0,1,5.349,11.552A77.593,77.593,0,0,1-5854.022,66l-32.033,0a51.21,51.21,0,0,0-1.987-12.1,41.153,41.153,0,0,0-5.572-11.92,27.8,27.8,0,0,0-8.266-8.037A19.233,19.233,0,0,0-5912,31a19.241,19.241,0,0,0-10.121,2.947,27.808,27.808,0,0,0-8.263,8.037,41.155,41.155,0,0,0-5.573,11.92,51.233,51.233,0,0,0-1.985,12.1h0c-.038.817-.056,1.657-.056,2.5a51.838,51.838,0,0,0,2.042,14.6,41.158,41.158,0,0,0,5.573,11.92,27.788,27.788,0,0,0,8.263,8.037A19.237,19.237,0,0,0-5912,106v30Z" data-name="합치기 7" transform="translate(7401.001 72)"/><path id="빼기_22-2" fill="url(#linear-gradient-5)" d="M-5942.5,53a17.252,17.252,0,0,1-11.1-4.221,25.652,25.652,0,0,1-7.432-10.945A11.516,11.516,0,0,0-5956,39a12.676,12.676,0,0,0,9.9-5.125A19.8,19.8,0,0,0-5942,21.5a20.288,20.288,0,0,0-3.341-11.347,13.669,13.669,0,0,0-8.3-5.9A17.261,17.261,0,0,1-5942.5,0a16.476,16.476,0,0,1,7.979,2.083A21.042,21.042,0,0,1-5928,7.762a27.859,27.859,0,0,1,4.394,8.423A33.114,33.114,0,0,1-5922,26.5a33.114,33.114,0,0,1-1.611,10.315A27.859,27.859,0,0,1-5928,45.238a21.042,21.042,0,0,1-6.516,5.679A16.476,16.476,0,0,1-5942.5,53Z" data-name="빼기 22" transform="translate(7424 164)"/><path id="합치기_7-3" fill="url(#linear-gradient-4)" d="M-5912,136a50.4,50.4,0,0,1-22.576-5.344,56,56,0,0,1-9.853-6.269,61.6,61.6,0,0,1-8.583-8.3,67.45,67.45,0,0,1-7.083-10.064,72.339,72.339,0,0,1-5.346-11.552A77.744,77.744,0,0,1-5970,68c0-.668.009-1.341.025-2h0a77.523,77.523,0,0,1,4.534-24.467,72.473,72.473,0,0,1,5.348-11.552,67.489,67.489,0,0,1,7.082-10.064,61.6,61.6,0,0,1,8.584-8.3,55.877,55.877,0,0,1,9.853-6.269A50.4,50.4,0,0,1-5912,0a50.4,50.4,0,0,1,22.576,5.344,55.984,55.984,0,0,1,9.853,6.269,61.576,61.576,0,0,1,8.583,8.3,67.408,67.408,0,0,1,7.083,10.064,72.615,72.615,0,0,1,5.349,11.552A77.593,77.593,0,0,1-5854.022,66l-32.033,0a51.21,51.21,0,0,0-1.987-12.1,41.153,41.153,0,0,0-5.572-11.92,27.8,27.8,0,0,0-8.266-8.037A19.233,19.233,0,0,0-5912,31a19.241,19.241,0,0,0-10.121,2.947,27.808,27.808,0,0,0-8.263,8.037,41.155,41.155,0,0,0-5.573,11.92,51.233,51.233,0,0,0-1.985,12.1h0c-.038.817-.056,1.657-.056,2.5a51.838,51.838,0,0,0,2.042,14.6,41.158,41.158,0,0,0,5.573,11.92,27.788,27.788,0,0,0,8.263,8.037A19.237,19.237,0,0,0-5912,106v30Z" data-name="합치기 7" transform="translate(7498.001 72)"/><path id="빼기_22-3" fill="url(#linear-gradient-5)" d="M-5942.5,53a17.252,17.252,0,0,1-11.1-4.221,25.652,25.652,0,0,1-7.432-10.945A11.516,11.516,0,0,0-5956,39a12.676,12.676,0,0,0,9.9-5.125A19.8,19.8,0,0,0-5942,21.5a20.288,20.288,0,0,0-3.341-11.347,13.669,13.669,0,0,0-8.3-5.9A17.261,17.261,0,0,1-5942.5,0a16.476,16.476,0,0,1,7.979,2.083A21.042,21.042,0,0,1-5928,7.762a27.859,27.859,0,0,1,4.394,8.423A33.114,33.114,0,0,1-5922,26.5a33.114,33.114,0,0,1-1.611,10.315A27.859,27.859,0,0,1-5928,45.238a21.042,21.042,0,0,1-6.516,5.679A16.476,16.476,0,0,1-5942.5,53Z" data-name="빼기 22" transform="translate(7521 164)"/><path id="합치기_7-4" fill="url(#linear-gradient-4)" d="M-5912,136a50.4,50.4,0,0,1-22.576-5.344,56,56,0,0,1-9.853-6.269,61.6,61.6,0,0,1-8.583-8.3,67.45,67.45,0,0,1-7.083-10.064,72.339,72.339,0,0,1-5.346-11.552A77.744,77.744,0,0,1-5970,68c0-.668.009-1.341.025-2h0a77.523,77.523,0,0,1,4.534-24.467,72.473,72.473,0,0,1,5.348-11.552,67.489,67.489,0,0,1,7.082-10.064,61.6,61.6,0,0,1,8.584-8.3,55.877,55.877,0,0,1,9.853-6.269A50.4,50.4,0,0,1-5912,0a50.4,50.4,0,0,1,22.576,5.344,55.984,55.984,0,0,1,9.853,6.269,61.576,61.576,0,0,1,8.583,8.3,67.408,67.408,0,0,1,7.083,10.064,72.615,72.615,0,0,1,5.349,11.552A77.593,77.593,0,0,1-5854.022,66l-32.033,0a51.21,51.21,0,0,0-1.987-12.1,41.153,41.153,0,0,0-5.572-11.92,27.8,27.8,0,0,0-8.266-8.037A19.233,19.233,0,0,0-5912,31a19.241,19.241,0,0,0-10.121,2.947,27.808,27.808,0,0,0-8.263,8.037,41.155,41.155,0,0,0-5.573,11.92,51.233,51.233,0,0,0-1.985,12.1h0c-.038.817-.056,1.657-.056,2.5a51.838,51.838,0,0,0,2.042,14.6,41.158,41.158,0,0,0,5.573,11.92,27.788,27.788,0,0,0,8.263,8.037A19.237,19.237,0,0,0-5912,106v30Z" data-name="합치기 7" transform="translate(7596.001 72)"/><path id="빼기_22-4" fill="url(#linear-gradient-5)" d="M-5942.5,53a17.252,17.252,0,0,1-11.1-4.221,25.652,25.652,0,0,1-7.432-10.945A11.516,11.516,0,0,0-5956,39a12.676,12.676,0,0,0,9.9-5.125A19.8,19.8,0,0,0-5942,21.5a20.288,20.288,0,0,0-3.341-11.347,13.669,13.669,0,0,0-8.3-5.9A17.261,17.261,0,0,1-5942.5,0a16.476,16.476,0,0,1,7.979,2.083A21.042,21.042,0,0,1-5928,7.762a27.859,27.859,0,0,1,4.394,8.423A33.114,33.114,0,0,1-5922,26.5a33.114,33.114,0,0,1-1.611,10.315A27.859,27.859,0,0,1-5928,45.238a21.042,21.042,0,0,1-6.516,5.679A16.476,16.476,0,0,1-5942.5,53Z" data-name="빼기 22" transform="translate(7619 164)"/></g></svg>