<?xml version="1.0" encoding="UTF-8" standalone="no"?>
<svg xmlns:dc="http://purl.org/dc/elements/1.1/" 
  xmlns:cc="http://creativecommons.org/ns#" 
  xmlns:rdf="http://www.w3.org/1999/02/22-rdf-syntax-ns#" 
  xmlns:svg="http://www.w3.org/2000/svg" 
  xmlns="http://www.w3.org/2000/svg" 
  xmlns:sodipodi="http://sodipodi.sourceforge.net/DTD/sodipodi-0.dtd" 
  xmlns:inkscape="http://www.inkscape.org/namespaces/inkscape" viewBox="0 0 373 373" height="373" width="373" xml:space="preserve" id="svg2" version="1.1" inkscape:version="0.91 r13725" sodipodi:docname="dimigo.svg">
  <sodipodi:namedview pagecolor="#ffffff" bordercolor="#666666" borderopacity="1" objecttolerance="10" gridtolerance="10" guidetolerance="10" inkscape:pageopacity="0" inkscape:pageshadow="2" inkscape:window-width="1863" inkscape:window-height="1056" id="namedview12" showgrid="false" width="512px" inkscape:showpageshadow="true" fit-margin-top="0" fit-margin-left="0" fit-margin-right="0" fit-margin-bottom="0" inkscape:zoom="2.5284424" inkscape:cx="239.34121" inkscape:cy="220.7007" inkscape:window-x="57" inkscape:window-y="24" inkscape:window-maximized="1" inkscape:current-layer="svg2" />
  <metadata id="metadata8">
    <rdf:RDF>
      <cc:Work rdf:about="">
        <dc:format>image/svg+xml</dc:format>
        <dc:type rdf:resource="http://purl.org/dc/dcmitype/StillImage" />
        <dc:title></dc:title>
      </cc:Work>
    </rdf:RDF>
  </metadata>
  <defs id="defs6">
    <clipPath id="clipPath18" clipPathUnits="userSpaceOnUse">
      <path id="path16" d="M 0,792 612,792 612,0 0,0 Z" inkscape:connector-curvature="0" />
    </clipPath>
  </defs>
  <g transform="matrix(1.3333333,0,0,-1.3333333,-233.99559,736.67225)" id="g10">
    <g id="g12">
      <g clip-path="url(#clipPath18)" id="g14">
        <g transform="translate(316.5107,369.3867)" id="g20">
          <path id="path22" style="fill:#fff;fill-opacity:1;fill-rule:nonzero;stroke:none" d="m 0,0 c -23.886,0 -43.246,19.359 -43.246,43.243 0,23.883 19.36,43.243 43.246,43.243 23.872,0 43.237,-19.36 43.237,-43.243 C 43.237,19.359 23.872,0 0,0 M 109.496,21.416 C 99.338,-29.789 54.182,-68.394 0,-68.394 c -61.663,0 -111.631,49.985 -111.631,111.637 0,61.641 49.968,111.636 111.631,111.636 35.883,0 67.801,-16.938 88.234,-43.26 L 68.471,75.127 C 56.443,100.897 30.309,118.769 0,118.769 c -41.72,0 -75.535,-33.815 -75.535,-75.526 0,-41.723 33.815,-75.544 75.535,-75.544 28.694,0 53.645,16.01 66.419,39.578 l 0.011,0 39.14,72.297 16.44,30.353 c -5.469,9.981 -12.127,19.227 -19.791,27.528 C 76.826,165.009 40.429,182.268 0,182.268 c -76.784,0 -139.025,-62.244 -139.025,-139.025 0,-76.782 62.241,-139.026 139.025,-139.026 68.222,0 124.936,49.127 136.747,113.943 z" inkscape:connector-curvature="0" />
        </g>
      </g>
    </g>
  </g>
</svg>
