<svg xmlns="http://www.w3.org/2000/svg" xmlns:xlink="http://www.w3.org/1999/xlink" viewBox="0 0 1670.7 391.44"><defs><style>.cls-1{fill:#fff}.cls-2{fill:url(#무제_그라디언트_50)}.cls-3{fill:url(#무제_그라디언트_50-2)}.cls-4{fill:url(#무제_그라디언트_50-3)}.cls-5{fill:#fff}</style></defs><title>dimigolife_logo_kor</title><g id="레이어_2" data-name="레이어 2"><g id="레이어_1-2" data-name="레이어 1"><path d="M363.15,194.17c.84,108.49-89,197.27-197.47,197.27H117.49a50.26,50.26,0,0,1-50.26-50.26H167c80.35,0,145.68-65.47,145.46-145.87s-66.46-145-146.87-145H50.73V272.68H166c42.37,0,77.53-33.84,77.94-76.21a77,77,0,0,0-77-77.71H119.23V256.18h-52V66.76H167a129,129,0,0,1,129,129c0,71.45-58.87,129-130.31,129H50.26A50.26,50.26,0,0,1,0,274.42V50.26A50.26,50.26,0,0,1,50.26,0H167.43A195.75,195.75,0,0,1,363.15,194.17Z" class="cls-1"/><rect width="109.59" height="52" x="50.73" y="272.68" class="cls-2"/><rect width="109.59" height="50.26" x="50.73" class="cls-3"/><path d="M228.82,82.54v36.22H119.23v-52H167A128.34,128.34,0,0,1,228.82,82.54Z" class="cls-4"/><path d="M585.17,226.5l-83.27,5.32a32,32,0,0,1-34-31.89V71.46H571.52V107h-60.6v89l74.25-5.24Zm6.92-160.65h42.08V239.59H624.05a32,32,0,0,1-32-32Z" class="cls-5"/><path d="M654.93,71.46H760.6V234H721.32v-6.73l-31.21,3.17a32,32,0,0,1-35.18-31.8Zm40.21,125.87,26.18-2.62V103.44H695.14Zm84-131.48H821.2V239.59H811.07a31.94,31.94,0,0,1-32-32Z" class="cls-5"/><path d="M838.21,203.12H890V134.49h40.4v68.63h79.86v33.67H870.17a32,32,0,0,1-32-32Zm5.61-134.47h160.85l-7.86,129.8h-40.4l5.8-97.07H843.82Z" class="cls-5"/><path d="M1085.08,71.46h100.06V165h-58.92v32l73.69-6.17v33.67l-80.23,6.66a32,32,0,0,1-34.6-31.85V133.18h59.47v-29h-59.47Zm119.7-5.61h41.14v63h19.45V164.6h-19.45v75h-9.19a31.94,31.94,0,0,1-32-32Z" class="cls-5"/><path d="M1272.1,114.85c0-27.5,23.75-46.2,52.74-46.2,29.18,0,53.12,18.7,53.12,46.2v75.74c0,27.5-23.94,46.2-53.12,46.2-29,0-52.74-18.7-52.74-46.2Zm39.84,77.61c0,6.55,5.42,12.72,13.46,12.72s13.66-6.17,13.66-12.72V113c0-6.17-5.62-12.91-13.66-12.91A13.42,13.42,0,0,0,1311.94,113Zm84.35-126.61h42.08V239.59h-10.13a31.94,31.94,0,0,1-32-32Z" class="cls-5"/><path d="M1455.38,202.75h172.07v34H1487.34a32,32,0,0,1-32-32ZM1597,146.08h25.81v30.11H1460.06V146.08h25.06l-3.37-42.64h37.6l2.61,42.64h38.16l2.8-42.64h37.59Zm-135-77.43h159V98.76h-159Z" class="cls-5"/><path d="M504.23,280.36a2.38,2.38,0,0,1,.65-1.07,2,2,0,0,1,1.43-.43h5.59a1.76,1.76,0,0,1,1.33.39,2,2,0,0,1,.36,1.37V328h-6.76V288.81l-.84,3.77-11.57,34.06a2.23,2.23,0,0,1-.69,1,1.72,1.72,0,0,1-1.07.32h-4.09a1.79,1.79,0,0,1-1.11-.29,1.84,1.84,0,0,1-.58-1.07l-11.64-34-.78-3.77V328H467.7V280.62a2.16,2.16,0,0,1,.33-1.37,1.75,1.75,0,0,1,1.36-.39H475a1.92,1.92,0,0,1,1.37.43,2.91,2.91,0,0,1,.71,1.07l12,34.38,1.56,5.46,1.56-5.46Z" class="cls-5"/><path d="M543.56,306.36v-1.5c-.18-2.38-.77-4-1.79-4.77a7.09,7.09,0,0,0-4.45-1.21,7.16,7.16,0,0,0-4.07,1q-1.51,1.05-1.85,4.75h-7.54a11.37,11.37,0,0,1,4.49-8.91,13.39,13.39,0,0,1,4.25-2,17.33,17.33,0,0,1,4.85-.69,14.18,14.18,0,0,1,9.45,3q3.61,3,3.55,9v17.29c0,.78,0,1.67.06,2.66a16.12,16.12,0,0,0,.46,3.12h-7.09l-.06-3.25a8.33,8.33,0,0,1-3.25,2.86,11,11,0,0,1-5.66,1.43q-6.24,0-9.2-2.82c-2-1.89-3-4.56-3-8a10.33,10.33,0,0,1,2-6.21,12,12,0,0,1,5.13-4.06,15.26,15.26,0,0,1,3.67-1.14,36.24,36.24,0,0,1,3.87-.49q1.82-.06,3.45-.06Zm-13.33,12.09c0,1.95.45,3.24,1.33,3.87a7.17,7.17,0,0,0,4.07.94,8.19,8.19,0,0,0,4.12-.91,6.76,6.76,0,0,0,2.51-2.47,11.35,11.35,0,0,0,1.17-3.54,26.38,26.38,0,0,0,.32-4.13h-3.7a19.34,19.34,0,0,0-4.49.52,8.22,8.22,0,0,0-3.77,1.79A4.89,4.89,0,0,0,530.23,318.45Z" class="cls-5"/><path d="M568.39,294.07v3a9.3,9.3,0,0,1,3.7-3,13,13,0,0,1,5.4-1q5.78,0,8.77,3.42t3,9.45v22.23H582v-20.6q0-4.81-1.4-6.73t-4.91-1.92a7.08,7.08,0,0,0-5.1,2.44c-1.58,1.63-2.37,4.19-2.37,7.7v19.11h-6.89V294.07Z" class="cls-5"/><path d="M618.18,306.36v-1.5c-.18-2.38-.77-4-1.79-4.77a7.09,7.09,0,0,0-4.45-1.21,7.16,7.16,0,0,0-4.07,1c-1,.7-1.63,2.28-1.85,4.75h-7.54a11.37,11.37,0,0,1,4.49-8.91,13.39,13.39,0,0,1,4.25-2,17.28,17.28,0,0,1,4.85-.69,14.18,14.18,0,0,1,9.45,3q3.62,3,3.55,9v17.29c0,.78,0,1.67.06,2.66a16.12,16.12,0,0,0,.46,3.12H618.5l-.06-3.25a8.33,8.33,0,0,1-3.25,2.86,11,11,0,0,1-5.66,1.43q-6.24,0-9.2-2.82c-2-1.89-3-4.56-3-8a10.33,10.33,0,0,1,2-6.21,12,12,0,0,1,5.13-4.06,15.26,15.26,0,0,1,3.67-1.14,35.92,35.92,0,0,1,3.87-.49q1.82-.06,3.45-.06Zm-13.33,12.09c0,1.95.44,3.24,1.33,3.87a7.17,7.17,0,0,0,4.07.94,8.19,8.19,0,0,0,4.12-.91,6.76,6.76,0,0,0,2.51-2.47,11.35,11.35,0,0,0,1.17-3.54,26.38,26.38,0,0,0,.32-4.13h-3.7a19.34,19.34,0,0,0-4.49.52,8.22,8.22,0,0,0-3.77,1.79A4.89,4.89,0,0,0,604.85,318.45Z" class="cls-5"/><path d="M649.51,340.74a18.65,18.65,0,0,1-10-2.53q-4.07-2.54-4.77-8.52h7.73q.2,3.26,2.44,4.29a11.25,11.25,0,0,0,4.84,1q4,0,6-2.08c1.32-1.38,2-3.68,2-6.89v-1a10.69,10.69,0,0,1-3.64,3,11.44,11.44,0,0,1-5.53,1.3,14.36,14.36,0,0,1-6.86-1.52,13.26,13.26,0,0,1-4.58-4,16.45,16.45,0,0,1-2.6-5.75,28.25,28.25,0,0,1-.78-6.67,26.57,26.57,0,0,1,.85-6.72,17.22,17.22,0,0,1,2.66-5.82,13.33,13.33,0,0,1,4.58-4.1,13.89,13.89,0,0,1,6.8-1.56,13.64,13.64,0,0,1,5.26.95,8.77,8.77,0,0,1,3.71,2.82l-.07-2.73h7v32.7q0,6.5-4,10.17T649.51,340.74Zm-.26-17.35q4.61,0,6.59-3.32a15.72,15.72,0,0,0,2-8.19,19.06,19.06,0,0,0-2-9.13q-2-3.67-6.85-3.67a6.17,6.17,0,0,0-3.84,1.14,7.61,7.61,0,0,0-2.34,2.95,13.07,13.07,0,0,0-1.23,4.07,30.5,30.5,0,0,0-.33,4.45,23.68,23.68,0,0,0,.42,4.55,11.71,11.71,0,0,0,1.34,3.7,6.77,6.77,0,0,0,6.24,3.45Z" class="cls-5"/><path d="M682.2,278.8V286h-7.6V278.8Zm-7.35,14.43h7.09V328h-7.09Z" class="cls-5"/><path d="M699.81,294.07v3a9.4,9.4,0,0,1,3.71-3,12.92,12.92,0,0,1,5.39-1q5.79,0,8.78,3.42t3,9.45v22.23h-7.22v-20.6q0-4.81-1.39-6.73c-.94-1.28-2.57-1.92-4.91-1.92a7.08,7.08,0,0,0-5.1,2.44c-1.58,1.63-2.38,4.19-2.38,7.7v19.11h-6.89V294.07Z" class="cls-5"/><path d="M745.44,340.74a18.64,18.64,0,0,1-10-2.53q-4.06-2.54-4.78-8.52h7.74q.2,3.26,2.44,4.29a11.25,11.25,0,0,0,4.84,1q4,0,6-2.08t2-6.89v-1a10.5,10.5,0,0,1-3.64,3,11.37,11.37,0,0,1-5.52,1.3,14.36,14.36,0,0,1-6.86-1.52,13.26,13.26,0,0,1-4.58-4,16.45,16.45,0,0,1-2.6-5.75,28.25,28.25,0,0,1-.78-6.67,27,27,0,0,1,.84-6.72,17.44,17.44,0,0,1,2.67-5.82,13.33,13.33,0,0,1,4.58-4.1,13.88,13.88,0,0,1,6.79-1.56,13.65,13.65,0,0,1,5.27.95,8.68,8.68,0,0,1,3.7,2.82l-.06-2.73h7v32.7q0,6.5-4,10.17T745.44,340.74Zm-.26-17.35q4.62,0,6.6-3.32a15.72,15.72,0,0,0,2-8.19,19.06,19.06,0,0,0-2-9.13q-2-3.67-6.86-3.67a6.14,6.14,0,0,0-3.83,1.14,7.61,7.61,0,0,0-2.34,2.95,13.35,13.35,0,0,0-1.24,4.07,31.93,31.93,0,0,0-.32,4.45,23.68,23.68,0,0,0,.42,4.55,12,12,0,0,0,1.33,3.7,7.19,7.19,0,0,0,2.51,2.54A7.11,7.11,0,0,0,745.18,323.39Z" class="cls-5"/><path d="M811.61,306.88V328H804.4V306.88l-17-28.15H796L808.1,300l12-21.26h8.58Z" class="cls-5"/><path d="M844.24,293a15.26,15.26,0,0,1,12.35,5.72,17.59,17.59,0,0,1,3,5.79,22.25,22.25,0,0,1,0,13.19,17.59,17.59,0,0,1-3,5.79,15.05,15.05,0,0,1-5.1,4.09,15.88,15.88,0,0,1-7.25,1.56,16,16,0,0,1-7.31-1.56,15.05,15.05,0,0,1-5.1-4.09,16.56,16.56,0,0,1-3-5.79,23.6,23.6,0,0,1,0-13.19,16.56,16.56,0,0,1,3-5.79,15.37,15.37,0,0,1,5.1-4.12A15.67,15.67,0,0,1,844.24,293Zm8.91,18.07a18.6,18.6,0,0,0-.52-4.38,12.94,12.94,0,0,0-1.63-3.94,9.65,9.65,0,0,0-2.76-2.79,7,7,0,0,0-4-1.11,7.27,7.27,0,0,0-4.09,1.11,8.86,8.86,0,0,0-2.73,2.79,12.17,12.17,0,0,0-1.59,3.94,19.67,19.67,0,0,0-.49,4.38,20.12,20.12,0,0,0,.49,4.46,11.39,11.39,0,0,0,1.59,3.86,8,8,0,0,0,2.73,2.8,7.67,7.67,0,0,0,4.09,1,7.4,7.4,0,0,0,4-1,8.59,8.59,0,0,0,2.76-2.8,12.08,12.08,0,0,0,1.63-3.86A19,19,0,0,0,853.15,311.1Z" class="cls-5"/><path d="M890.07,328.13l.13-3.05a10,10,0,0,1-3.61,2.92,12.32,12.32,0,0,1-5.62,1.17q-5.85,0-8.84-3.41t-3-9.46V294.07h7.21v20.61q0,4.88,1.37,6.76c.91,1.26,2.55,1.88,4.94,1.88a7.2,7.2,0,0,0,5.13-2.4q2.41-2.4,2.41-7.74V294.07H897v34.06Z" class="cls-5"/><path d="M922.44,299.73a8.31,8.31,0,0,0-2.86.49,6,6,0,0,0-2.41,1.59,7.29,7.29,0,0,0-1.65,2.86,13.62,13.62,0,0,0-.62,4.42v19h-7.09V294.07H915l-.13,3.64a23.15,23.15,0,0,1,2.86-3.12,6.25,6.25,0,0,1,4.42-1.56,18.68,18.68,0,0,1,2,.13,11.72,11.72,0,0,1,2.27.52v7a9.61,9.61,0,0,0-2.24-.75A10,10,0,0,0,922.44,299.73Z" class="cls-5"/><path d="M957.15,328a2.06,2.06,0,0,1-1.4-.35,2,2,0,0,1-.36-1.4V278.86h7.35v43h22.49V328Z" class="cls-5"/><path d="M1001.48,328h-7.22V278.67h7.22Z" class="cls-5"/><path d="M1016.42,278.93h26.91V285H1022v14.3h21.19v6.17H1022V328h-7.28V280.68a2,2,0,0,1,.36-1.36A1.88,1.88,0,0,1,1016.42,278.93Z" class="cls-5"/><path d="M1055.62,328a2.07,2.07,0,0,1-1.4-.35,2,2,0,0,1-.36-1.4V280.62a2,2,0,0,1,.36-1.37,1.9,1.9,0,0,1,1.4-.39h27.88V285h-22.36V299.6h22.23v6.17h-22.23v16.06h23.4V328Z" class="cls-5"/><circle cx="1650.8" cy="38.75" r="19.9" class="cls-1"/></g></g></svg>