<svg xmlns="http://www.w3.org/2000/svg" id="Layer_1" x="0" y="0" version="1.1" viewBox="0 0 127.5 32.3" xml:space="preserve" style="width:150px"><path fill="#fff" d="M10.9 21.1H7.8c-4.3 0-7.8-3.5-7.8-7.9 0-2.1.8-4.1 2.3-5.5.9-.9 2.5-.9 3.4 0s.9 2.5 0 3.4c-1.2 1.1-1.2 3-.1 4.2.6.6 1.4.9 2.2.9h.8V2.3C8.7 1 9.8 0 11.2 0c1.2.1 2.2 1 2.3 2.3v16.3c-.1 1.4-1.2 2.5-2.6 2.5zm10.5-2.4v-7.2c.1-1.3-.9-2.5-2.3-2.6s-2.5.9-2.6 2.3v7.5c-.1 1.3.9 2.5 2.3 2.6 1.3.1 2.5-.9 2.6-2.3v-.3zM19.5 7.8c.2 0 .3-.1.5-.1.1-.1.3-.1.4-.2s.3-.2.4-.3.2-.2.3-.4c.1-.1.2-.3.2-.4.1-.1.1-.3.1-.4v-.5c0-.6-.3-1.3-.7-1.7-.1-.1-.2-.2-.4-.3-.1-.1-.3-.2-.4-.2-.1-.1-.3-.1-.5-.1-.3-.1-.6-.1-.9 0-.2 0-.3.1-.5.1-.1.1-.3.1-.4.2-.1.1-.3.2-.4.3-.1.1-.2.2-.3.4-.2.3-.3.6-.4.9 0 .2-.1.3 0 .5v.5c0 .2.1.3.1.4.1.1.1.3.2.4.1.1.2.3.3.4.8.4 1.6.6 2.4.5zm29.4-.2c-3-3-7.9-3.1-11-.1-3.1-3-8.1-2.9-11.1.2-1.4 1.5-2.2 3.4-2.2 5.4V19c-.1 1.3.9 2.5 2.3 2.6 1.3.1 2.5-.9 2.6-2.3v-6.2c0-1.7 1.3-3 3-3s3 1.3 3 3V19c-.1 1.3.9 2.5 2.3 2.6 1.3.1 2.5-.9 2.6-2.3v-6.2c0-1.7 1.3-3 3-3s3 1.3 3 3V19c0 1.3 1.1 2.4 2.4 2.4s2.4-1.1 2.4-2.4v-5.9c.1-2.1-.8-4.1-2.3-5.5zm10.5 11.1v-7.2c.1-1.3-.9-2.5-2.3-2.6-1.3-.1-2.5.9-2.6 2.3v7.5c-.1 1.3.9 2.5 2.3 2.6 1.3.1 2.5-.9 2.6-2.3v-.3zm-2-10.9c.2 0 .3-.1.4-.1.1-.1.3-.1.4-.2s.3-.2.4-.3c.1-.1.2-.2.3-.4.1-.1.2-.3.2-.4.1-.1.1-.3.1-.4.1-.3.1-.6 0-.9 0-.2-.1-.3-.1-.5-.1-.1-.1-.3-.2-.4s-.2-.3-.3-.4c-.1-.1-.2-.2-.4-.3-.1-.1-.3-.2-.4-.2-.1-.1-.3-.1-.4-.1-.3-.1-.6-.1-.9 0-.2 0-.3.1-.4.1-.1.1-.3.1-.4.2s-.3.2-.4.3c-.1.1-.2.2-.3.4-.1.1-.2.3-.2.4-.1.1-.1.3-.1.5-.1.8.1 1.6.7 2.2.1.1.2.2.4.3.1.1.3.2.4.2.1.1.3.1.4.1.3-.1.6-.1.8-.1zm19.9 6.1v10.9c.1 4-3 7.4-7 7.5s-7.4-3-7.5-7v-.5c-.1-1.3.9-2.5 2.3-2.6 1.3-.1 2.5.9 2.6 2.3v.3c-.1 1.3.9 2.5 2.3 2.6 1.3.1 2.5-.9 2.6-2.3V20.7c-3.8 1.3-7.9-.6-9.2-4.4s.6-7.9 4.4-9.2c3.8-1.3 7.9.6 9.2 4.4.2.7.3 1.5.3 2.4zm-4.9 0c0-1.3-1.1-2.4-2.4-2.4s-2.4 1.1-2.4 2.4 1.1 2.4 2.4 2.4c1.4 0 2.4-1.1 2.4-2.4zm22.4 0c0-4-3.2-7.3-7.3-7.3s-7.3 3.2-7.3 7.3c0 4 3.2 7.3 7.3 7.3s7.3-3.2 7.3-7.3c.1 0 .1 0 0 0zm-4.8 0c0 1.3-1.1 2.4-2.4 2.4s-2.4-1.1-2.4-2.4 1.1-2.4 2.4-2.4c1.3-.1 2.4 1 2.4 2.4z"/><path fill="#fff" d="M124.8 18.4v-5.9c.2-4.3-3.2-8-7.6-8.1-4.3-.2-8 3.2-8.1 7.6v6.5c-.1 1.3.9 2.5 2.3 2.6 1.3.1 2.5-.9 2.6-2.3v-6.2c0-1.7 1.3-3 3-3 .8 0 1.6.3 2.1.9.6.6.9 1.3.9 2.1v5.9c-.1 1.3.9 2.5 2.3 2.6 1.3.1 2.5-.9 2.6-2.3-.1-.2-.1-.3-.1-.4zM127.5 26.9c0-1.3-1.1-2.4-2.4-2.4h-24.5c-1.3.1-2.3 1.2-2.3 2.6.1 1.2 1 2.2 2.3 2.3h24.5c1.3-.1 2.4-1.2 2.4-2.5zM103.4 1.2l1 2s0 .1.1.1l2.2.3c.1 0 .1.1.1.2l-1.6 1.5v.1l.4 2.2c0 .1-.1.2-.2.1l-1.9-1h-.1l-1.9 1c-.1 0-.2 0-.2-.1l.4-2.2v-.1l-1.6-1.5c-.1-.1 0-.2.1-.2l2.2-.3s.1 0 .1-.1l.9-2c-.1-.1 0-.1 0 0z" class="st0"/><g id="Layer_2" fill="#fff"><path fill="#fff" d="M105.7 11.4l-4.8 1.8v1.6l4.8-1.8zM103.5 8.7c-1.3-.1-2.5.9-2.6 2.3v.6l4.5-1.7c-.4-.7-1.1-1.1-1.9-1.2zM103.3 20.7c1.4 0 2.4-1.1 2.4-2.4v-.4l-4.5 1.6c.5.7 1.2 1.2 2.1 1.2zM100.9 16.4v1.7l4.8-1.8v-1.7z" class="st0"/><path d="M105.7 11c0-.4-.2-.8-.4-1.1l-4.5 1.7v1.6l4.8-1.8.1-.4zM105.7 13l-4.8 1.8v1.6l4.8-1.8zM100.9 18.3c0 .5.1.9.4 1.3l4.5-1.6v-1.6l-4.9 1.7v.2z" class="st1"/></g></svg>