<svg xmlns="http://www.w3.org/2000/svg" xmlns:xlink="http://www.w3.org/1999/xlink" width="491.885" height="488.021" viewBox="0 0 491.885 488.021">
  <defs>
    <linearGradient id="linear-gradient" x1="0.5" y1="0.281" x2="0.271" y2="1.079" gradientUnits="objectBoundingBox">
      <stop offset="0" stop-color="#f0f0f0"/>
      <stop offset="1" stop-color="#d5d5d5"/>
    </linearGradient>
    <linearGradient id="linear-gradient-2" y1="1.046" x2="0.694" y2="0.5" gradientUnits="objectBoundingBox">
      <stop offset="0" stop-color="#fff"/>
      <stop offset="1" stop-color="#f5f5f5"/>
    </linearGradient>
    <linearGradient id="linear-gradient-3" x1="0.81" y1="0.385" x2="0.179" y2="0.5" gradientUnits="objectBoundingBox">
      <stop offset="0" stop-color="#ffdc27"/>
      <stop offset="1" stop-color="#ffc900"/>
    </linearGradient>
    <linearGradient id="linear-gradient-4" y1="0.581" x2="0.875" y2="0.78" gradientUnits="objectBoundingBox">
      <stop offset="0" stop-color="#fff9e6"/>
      <stop offset="1" stop-color="#e3d7ac"/>
    </linearGradient>
    <linearGradient id="linear-gradient-5" x1="0.838" y1="0.411" x2="0.282" y2="0.5" gradientUnits="objectBoundingBox">
      <stop offset="0" stop-color="#c1bca3"/>
      <stop offset="0.015" stop-color="#c2bda4"/>
      <stop offset="1" stop-color="#ebe2be"/>
    </linearGradient>
    <linearGradient id="linear-gradient-6" x1="0.276" y1="0.916" x2="0.866" y2="0.181" gradientUnits="objectBoundingBox">
      <stop offset="0" stop-color="#fff5c1"/>
      <stop offset="1" stop-color="#fff"/>
    </linearGradient>
    <linearGradient id="linear-gradient-7" x1="0.256" x2="0.546" y2="0.839" gradientUnits="objectBoundingBox">
      <stop offset="0" stop-color="#c7c7c7"/>
      <stop offset="1" stop-color="#4b4b4b"/>
    </linearGradient>
    <linearGradient id="linear-gradient-8" x1="0.359" y1="0.409" x2="0.594" y2="0.609" gradientUnits="objectBoundingBox">
      <stop offset="0" stop-color="#ffd600"/>
      <stop offset="1" stop-color="#d3af00"/>
    </linearGradient>
    <linearGradient id="linear-gradient-9" x1="0.387" x2="0.811" y2="0.944" gradientUnits="objectBoundingBox">
      <stop offset="0" stop-color="#f5e48a"/>
      <stop offset="1" stop-color="#ffc900"/>
    </linearGradient>
    <linearGradient id="linear-gradient-10" x1="0.098" y1="0.107" x2="1.077" y2="0.857" gradientUnits="objectBoundingBox">
      <stop offset="0" stop-color="#c4c4c4"/>
      <stop offset="1" stop-color="#7c7c7c"/>
    </linearGradient>
  </defs>
  <g id="그룹_33" data-name="그룹 33" transform="translate(-1254 -608.576)">
    <g id="그룹_32" data-name="그룹 32" transform="translate(1148 11.828)">
      <g id="그룹_31" data-name="그룹 31" transform="translate(106 642.172)">
        <path id="패스_75" data-name="패스 75" d="M9.924-1.552,254.413-7.784c2.789,0,55.191,61.555,110.282,111.088,4.83,59.7,9.924,114.452,9.924,321.859a9.769,9.769,0,0,1-9.924,9.607H9.924A9.769,9.769,0,0,1,0,425.162V8.055A9.769,9.769,0,0,1,9.924-1.552Z" transform="translate(0 7.828)" fill="#f7f7f7"/>
        <rect id="사각형_49" data-name="사각형 49" width="195" height="30" rx="15" transform="translate(64 87.462)" fill="#e8e8e8"/>
        <rect id="사각형_50" data-name="사각형 50" width="247.618" height="30" rx="15" transform="translate(64 150.595)" fill="#e8e8e8"/>
        <rect id="사각형_51" data-name="사각형 51" width="247.618" height="30" rx="15" transform="translate(64 213.728)" fill="#e8e8e8"/>
        <rect id="사각형_52" data-name="사각형 52" width="247.618" height="30" rx="15" transform="translate(64 276.861)" fill="#e8e8e8"/>
        <rect id="사각형_53" data-name="사각형 53" width="247.618" height="30" rx="15" transform="translate(64 339.994)" fill="#e8e8e8"/>
        <path id="패스_77" data-name="패스 77" d="M5.134-7.736l133.226,139.5S19.536,175.192-8.586,145.1,5.134-7.736,5.134-7.736Z" transform="translate(224.411 7.828)" fill="url(#linear-gradient)"/>
        <path id="패스_76" data-name="패스 76" d="M-1.957,2.172,131.711,142.024S13.256,146.773,0,140.154-1.957,2.172-1.957,2.172Z" transform="translate(231.411 -2.172)" fill="url(#linear-gradient-2)"/>
      </g>
    </g>
    <g id="그룹_30" data-name="그룹 30" transform="translate(1064 -111)">
      <path id="패스_81" data-name="패스 81" d="M10560.888,121.826s22.553-2.815,40.26,10.47,29.5,34.982,30.567,42.67-3.225,10.391-3.225,10.391l-36.246-2.327Z" transform="translate(-9950 598)" fill="url(#linear-gradient-3)"/>
      <path id="패스_82" data-name="패스 82" d="M10202.948,519.212l42.483-87.951,75.2,71.815-93.111,44.565s-10.316-5.448-16.577-12.692A38.721,38.721,0,0,1,10202.948,519.212Z" transform="translate(-9950 598)" fill="url(#linear-gradient-4)"/>
      <path id="패스_83" data-name="패스 83" d="M10218.185,540.469l72.572-51.3,29.9,13.862-93.3,45.019Z" transform="translate(-9950 598)" fill="url(#linear-gradient-5)"/>
      <path id="패스_84" data-name="패스 84" d="M10208.468,530.751s42.6-61.678,43.688-66.583-3.252-13.111-4.336-17.482-38.351,68.421-39.352,72.588S10208.468,530.751,10208.468,530.751Z" transform="translate(-9950 598)" fill="url(#linear-gradient-6)"/>
      <path id="패스_85" data-name="패스 85" d="M10190.595,559.11l36.768-10.978-15.834-11.932c-3.958-2.983-8.754-16.879-8.754-16.879l-14.423,37.814s-.561,1.482,0,1.976S10190.595,559.11,10190.595,559.11Z" transform="translate(-9950 598)" fill="url(#linear-gradient-7)"/>
      <path id="패스_78" data-name="패스 78" d="M10245.265,431l241.664-245.172s-4.249,24.776,24.586,52.15,50.848,25.7,50.848,25.7l-241.986,239.387s-14.39,2.118-24.407-7.263-6.428-20.865-15.662-30.259-15.418-2.264-24.179-10.9S10245.265,431,10245.265,431Z" transform="translate(-9950 598)" fill="url(#linear-gradient-8)"/>
      <path id="패스_80" data-name="패스 80" d="M10518.206,155.926s30.158-25.283,40.96-33.472c6.849-5.191,12.92,23.031,29.15,38.729,9.053,8.755,42.229,24.053,42.229,24.053l-35.132,45.118-55.388-10.339-21.82-33.289Z" transform="translate(-9952 598)" fill="url(#linear-gradient-9)"/>
      <path id="패스_79" data-name="패스 79" d="M10484.3,188.184l32.956-33.157s13.452,30.834,32.295,50.207,43.749,25.176,43.749,25.176l-32.719,34.935s-34.729-9.17-53.225-29.158S10484.3,188.184,10484.3,188.184Z" transform="translate(-9950 598)" fill="url(#linear-gradient-10)"/>
    </g>
  </g>
</svg>
