<svg xmlns="http://www.w3.org/2000/svg" xmlns:xlink="http://www.w3.org/1999/xlink" width="833.087" height="833.4" viewBox="0 0 833.087 833.4">
  <defs>
    <linearGradient id="linear-gradient" x1="0.836" y1="1.063" x2="0.127" y2="0.194" gradientUnits="objectBoundingBox">
      <stop offset="0" stop-color="#ffd600"/>
      <stop offset="1" stop-color="#f4b521"/>
    </linearGradient>
    <linearGradient id="linear-gradient-2" x1="0.601" y1="0.074" x2="0.467" y2="0.802" gradientUnits="objectBoundingBox">
      <stop offset="0" stop-color="#ffd600"/>
      <stop offset="1" stop-color="#f4b321"/>
    </linearGradient>
    <linearGradient id="linear-gradient-3" x1="0.304" y1="0.022" x2="1.048" y2="0.93" gradientUnits="objectBoundingBox">
      <stop offset="0" stop-color="#ffc422"/>
      <stop offset="1" stop-color="#ffd600"/>
    </linearGradient>
    <linearGradient id="linear-gradient-4" x1="0.932" y1="0.473" x2="-0.05" y2="0.186" gradientUnits="objectBoundingBox">
      <stop offset="0" stop-color="#ffc900"/>
      <stop offset="1" stop-color="#c98a13"/>
    </linearGradient>
    <linearGradient id="linear-gradient-5" x1="0.062" y1="0.222" x2="0.878" y2="0.415" gradientUnits="objectBoundingBox">
      <stop offset="0" stop-color="#ffd600"/>
      <stop offset="1" stop-color="#ffc748"/>
    </linearGradient>
    <linearGradient id="linear-gradient-6" x1="0.414" y1="0.27" x2="0.83" y2="0.832" gradientUnits="objectBoundingBox">
      <stop offset="0" stop-color="#fff"/>
      <stop offset="1" stop-color="#555"/>
    </linearGradient>
    <linearGradient id="linear-gradient-7" x1="0.22" y1="0.413" x2="0.653" y2="0.907" gradientUnits="objectBoundingBox">
      <stop offset="0" stop-color="#efefef"/>
      <stop offset="1" stop-color="#9b9b9b"/>
    </linearGradient>
  </defs>
  <g id="그룹_26" data-name="그룹 26" transform="translate(-957.971 -182.022)">
    <path id="패스_70" data-name="패스 70" d="M9492.392,343.817c-24.95-50.232-11.373-89.327,0-107.224s80.741-33.806,152.99,32.786,80.016,135.443,57.862,158.938-56.315,37.851-111.052,9.2S9517.342,394.049,9492.392,343.817Z" transform="translate(-7960)" fill="url(#linear-gradient)"/>
    <path id="패스_67" data-name="패스 67" d="M9467.857,607.889,9644.8,412.777s7.15-41.9-28.948-92.2-81.242-45.48-81.242-45.48l-211.4,183.133s47.89,15.941,85.73,51.649S9467.857,607.889,9467.857,607.889Z" transform="translate(-7960)" fill="url(#linear-gradient-2)"/>
    <path id="패스_68" data-name="패스 68" d="M9461.842,826.994s52.306-49.588,39.985-127.721-21.711-112.322-78.932-177.357-117.609-79.412-159.08-90.786-81-.888-122.833,9.8-51.442,37.778-51.442,37.778,83.416,43.264,110.538,51.256,99.082,46.326,130.474,69.8,69.258,86.744,92.344,115.659S9461.842,826.994,9461.842,826.994Z" transform="translate(-7960)" fill="url(#linear-gradient-3)"/>
    <path id="패스_69" data-name="패스 69" d="M9091.829,476.036c29.125-16.3,141.466,31.4,232.713,107.482s120.115,145.458,132.273,196.835,6.147,43.957,6.147,43.957-13.405,41.218-74.789,13.424-87.56-45.231-170.747-124.6C9125.811,625.725,9062.7,492.332,9091.829,476.036Z" transform="translate(-7960)" fill="url(#linear-gradient-4)"/>
    <path id="패스_71" data-name="패스 71" d="M9499.3,230.106l60.189-45.3c15.048-11.325,80.142,13.124,127.074,50.981s63.577,85.7,64.447,107.719-11.719,40.747-11.719,40.747l-44.846,52.424s25.276-27.21,10.245-67.774c-11.646-31.423-40.838-60.68-62.206-83.3C9593.7,233.961,9499.3,230.106,9499.3,230.106Z" transform="translate(-7960)" fill="url(#linear-gradient-5)"/>
    <path id="패스_72" data-name="패스 72" d="M8920,1015.371c7.5.906,21.859-9.488,101.848-82.9s218.107-210.738,218.107-210.738,8.542-10.921-8.172-27.276-26.105-5.325-26.105-5.325-139.523,138.242-210.942,219.8S8912.5,1014.464,8920,1015.371Z" transform="translate(-7960)" fill="url(#linear-gradient-6)"/>
    <path id="패스_73" data-name="패스 73" d="M9210.522,685.5l141.5-130.061s9.055-1.493,18.249,6.965,7.107,18.4,7.107,18.4L9240.09,721.263a54.443,54.443,0,0,1-17.827-13.519C9214.871,698.8,9210.522,685.5,9210.522,685.5Z" transform="translate(-7960)" opacity="0.6" fill="url(#linear-gradient-7)"/>
  </g>
</svg>
