<svg xmlns="http://www.w3.org/2000/svg" xmlns:xlink="http://www.w3.org/1999/xlink" width="1359.253" height="1415.873" viewBox="0 0 1359.253 1415.873"><defs><linearGradient id="linear-gradient" x1=".632" x2=".102" y1="-.213" y2=".85" gradientUnits="objectBoundingBox"><stop offset="0" stop-color="#fcfcfc"/><stop offset="1" stop-color="#dedede"/></linearGradient><linearGradient id="linear-gradient-2" x1=".298" x2=".822" y1=".039" y2=".989" gradientUnits="objectBoundingBox"><stop offset="0" stop-color="#fff"/><stop offset=".616" stop-color="#a0a0a0"/><stop offset=".68" stop-color="#ffd600"/><stop offset="1" stop-color="#d99f00"/></linearGradient><linearGradient id="linear-gradient-3" x1="-.098" x2=".919" y1=".16" y2=".877" gradientUnits="objectBoundingBox"><stop offset="0" stop-color="#fff"/><stop offset=".356" stop-color="#ffd600"/><stop offset=".709" stop-color="#e0aa00"/><stop offset="1" stop-color="#ffc831"/></linearGradient><linearGradient id="linear-gradient-4" x1=".194" x2=".886" y1=".003" y2=".986" gradientUnits="objectBoundingBox"><stop offset="0" stop-color="#ffd600"/><stop offset=".668" stop-color="#ffc900"/><stop offset="1" stop-color="#f8bf00"/></linearGradient><linearGradient id="linear-gradient-5" x1=".194" x2=".886" y1=".003" y2=".986" gradientUnits="objectBoundingBox"><stop offset="0" stop-color="#ffd600"/><stop offset=".668" stop-color="#f5c100"/><stop offset="1" stop-color="#f8bf00"/></linearGradient><linearGradient id="linear-gradient-6" x1=".706" x2=".083" y1=".107" y2="1" gradientUnits="objectBoundingBox"><stop offset="0" stop-color="#f7c300"/><stop offset="1" stop-color="#ffd000"/></linearGradient><linearGradient id="linear-gradient-7" x1=".712" x2=".312" y1=".105" y2=".757" gradientUnits="objectBoundingBox"><stop offset="0" stop-color="#cbcbcb"/><stop offset="1" stop-color="#747474"/></linearGradient></defs><g id="그룹_37" data-name="그룹 37" transform="translate(-280.373 94.437)"><g id="그룹_36" data-name="그룹 36"><g id="그룹_35" data-name="그룹 35" transform="translate(-235 8)"><path id="합치기_9" fill="url(#linear-gradient)" d="M-11940,1065c0-106.01,54.992-199.182,138-252.542V162.5A162.5,162.5,0,0,1-11639.5,0,162.5,162.5,0,0,1-11477,162.5V813.1c82.451,53.464,137,146.311,137,251.9,0,165.685-134.314,300-300,300S-11940,1230.684-11940,1065Z" data-name="합치기 9" transform="matrix(0.743, -0.669, 0.669, 0.743, 9388.522, -7690.376)"/><path id="합치기_10" fill="url(#linear-gradient-2)" d="M-11944.1,903.019a245.928,245.928,0,0,1,133.626-218.83V2.017a115.252,115.252,0,0,1,115.251-115.251,115.251,115.251,0,0,1,115.25,115.251V687.243a245.883,245.883,0,0,1,127.874,215.776c0,135.826-110.137,245.936-246,245.936S-11944.1,1038.845-11944.1,903.019Z" data-name="합치기 10" transform="matrix(0.743, -0.669, 0.669, 0.743, 9536.782, -7606.643)"/><ellipse id="타원_46" cx="246" cy="245.934" fill="url(#linear-gradient-3)" data-name="타원 46" rx="246" ry="245.934" transform="matrix(0.743, -0.669, 0.669, 0.743, 1100.267, 873.826)"/><path id="합치기_11" fill="url(#linear-gradient-4)" d="M-11944.1,866.52c0-81.195,54.282-151.6,133.626-186.354v-347.4h230.5v350c76.2,35.586,127.874,104.536,127.874,183.753,0,115.667-110.137,209.434-246,209.434S-11944.1,982.188-11944.1,866.52Z" data-name="합치기 11" transform="matrix(0.743, -0.669, 0.669, 0.743, 9536.782, -7606.643)"/><rect id="사각형_57" width="48.5" height="349.78" fill="url(#linear-gradient-5)" data-name="사각형 57" transform="matrix(0.743, -0.669, 0.669, 0.743, 1117.812, 421.616)"/><path id="패스_90" fill="url(#linear-gradient-6)" d="M13155.009,801.61c48.054-66.413,161.391-148.493,172.737-153s26.636-8.25,52.2-10.88,51.993,2.907,51.993,2.907l-296.225,294.273S13106.955,868.023,13155.009,801.61Z" data-name="패스 90" transform="translate(-11940)"/></g><path id="합치기_12" fill="url(#linear-gradient-7)" d="M-11734.376,376.327a24.5,24.5,0,0,1-.6-34.645l106.282-110.059a24.5,24.5,0,0,1,34.642-.6,24.5,24.5,0,0,1,.605,34.645l-106.283,110.059a24.434,24.434,0,0,1-17.627,7.481A24.409,24.409,0,0,1-11734.376,376.327Zm-88-105a24.5,24.5,0,0,1-.605-34.642l106.283-110.059a24.5,24.5,0,0,1,34.642-.6,24.5,24.5,0,0,1,.608,34.642l-106.286,110.059a24.43,24.43,0,0,1-17.626,7.481A24.409,24.409,0,0,1-11822.376,271.326Zm-100-109a24.5,24.5,0,0,1-.6-34.645L-11816.7,17.623a24.5,24.5,0,0,1,34.642-.6,24.5,24.5,0,0,1,.605,34.645l-106.283,110.059a24.429,24.429,0,0,1-17.626,7.48A24.418,24.418,0,0,1-11922.376,162.327Z" data-name="합치기 12" opacity=".514" transform="translate(12541.216 309.827)"/></g></g></svg>