<svg xmlns="http://www.w3.org/2000/svg" xmlns:xlink="http://www.w3.org/1999/xlink" width="414.34" height="422.302" viewBox="0 0 414.34 422.302">
  <defs>
    <linearGradient id="linear-gradient" x1="0.152" y1="-0.058" x2="0.5" y2="0.745" gradientUnits="objectBoundingBox">
      <stop offset="0" stop-color="#ffd600"/>
      <stop offset="1" stop-color="#ffc900"/>
    </linearGradient>
    <linearGradient id="linear-gradient-2" x1="0.092" y1="0.134" x2="0.923" y2="0.949" gradientUnits="objectBoundingBox">
      <stop offset="0" stop-color="#ffdf39"/>
      <stop offset="1" stop-color="#ffc900"/>
    </linearGradient>
    <linearGradient id="linear-gradient-3" x1="0.855" y1="0.104" x2="0.745" y2="1.072" gradientUnits="objectBoundingBox">
      <stop offset="0" stop-color="#8b8b8b"/>
      <stop offset="0.389" stop-color="#b4b4b4"/>
      <stop offset="0.898" stop-color="#686868"/>
      <stop offset="1" stop-color="#5c5c5c"/>
    </linearGradient>
    <linearGradient id="linear-gradient-4" x1="0.366" y1="0.094" x2="1" y2="0.669" gradientUnits="objectBoundingBox">
      <stop offset="0" stop-color="#9d9d9d"/>
      <stop offset="0.552" stop-color="#9a9a9a"/>
      <stop offset="1" stop-color="#5c5c5c"/>
    </linearGradient>
    <linearGradient id="linear-gradient-5" x1="0.561" y1="0.182" x2="0.903" y2="0.773" gradientUnits="objectBoundingBox">
      <stop offset="0" stop-color="#868686"/>
      <stop offset="0.488" stop-color="#9f9f9f"/>
      <stop offset="1" stop-color="#747474"/>
    </linearGradient>
    <linearGradient id="linear-gradient-6" x1="0.366" y1="0.094" x2="1" y2="0.669" gradientUnits="objectBoundingBox">
      <stop offset="0" stop-color="#bfbfbf"/>
      <stop offset="1" stop-color="#5c5c5c"/>
    </linearGradient>
    <linearGradient id="linear-gradient-7" x1="0.5" x2="0.5" y2="1" gradientUnits="objectBoundingBox">
      <stop offset="0" stop-color="#838383"/>
      <stop offset="1" stop-color="#d9d6c6"/>
    </linearGradient>
  </defs>
  <g id="그룹_25" data-name="그룹 25" transform="translate(-142.426 -80.266)">
    <path id="패스_59" data-name="패스 59" d="M8163.458,108.586l44.375-18.641,274.279,12.986L8503.6,442.375l-138.021,36.2Z" transform="translate(-7960)" fill="#ddd"/>
    <path id="패스_56" data-name="패스 56" d="M8148.715,111.406l45.108-29.224c11.277-7.306,293.527,8.644,293.527,8.644L8449.418,98.5,8208.8,90.825l-33.142,16.687,99.588,11.882c24.9,2.97,145.381,28.289,145.381,28.289L8345,179.452,8208.8,147.683Z" transform="translate(-7960)" fill="url(#linear-gradient)"/>
    <path id="패스_57" data-name="패스 57" d="M8208.252,110.219l19.332-8.646,131.662,4.9c32.916,1.225,110.763,7.088,110.763,7.088L8448.668,134.1c-5.335,5.134-25.732,15.725-25.732,15.725Z" transform="translate(-7960)" fill="#d9d9d9"/>
    <path id="패스_51" data-name="패스 51" d="M8166.333,431.244l118.111,37.867c29.527,9.467,145.071,33.456,145.071,33.456l11.863-10.132C8444.344,489.9,8421.131,149,8421.131,149l-188.972-30.174c-47.243-7.543-49.671-8.858-49.671-8.858l35.137-11.905,123.279,3.591c30.82.9,133.088,8.314,133.088,8.314l-9.146,345.075h48.462c12.115,0-11.49-310.785-11.49-310.785l-4.941-46.195c-1.235-11.549-22.884-6.745-22.884-6.745l-268.524-4.812-56.753,23.462s3.2,135.735,4.271,180.98S8166.333,431.244,8166.333,431.244Z" transform="translate(-7960)" fill="url(#linear-gradient-2)"/>
    <path id="패스_55" data-name="패스 55" d="M8182.761,85.333s-24.435-1.111-43.925,5.858-25.583,13.869-33.35,29.137,1.208,31.049,5.393,38.561,15.283,13.974,34,17.364,46.23,6.389,43.367-17.364-35.321-6.084-49.4-12.641-5.5-23.55,0-25.921,28.934-6.776,40.251-9.053S8182.761,85.333,8182.761,85.333Z" transform="translate(-7948 231)" fill="url(#linear-gradient-3)"/>
    <path id="패스_53" data-name="패스 53" d="M8182.665,79.666s-24.339,4.555-43.829,11.524-25.583,13.869-33.35,29.137,1.208,31.049,5.393,38.561,15.283,13.974,34,17.364,46.23,6.389,43.367-17.364-35.321-6.084-49.4-12.641-5.5-23.55,0-25.921,25.811-9.9,37.128-12.179S8182.665,79.666,8182.665,79.666Z" transform="translate(-7952 158)" fill="url(#linear-gradient-4)"/>
    <path id="패스_54" data-name="패스 54" d="M8184.208,79.143s-25.881,5.078-45.372,12.047-25.583,13.869-33.35,29.137,1.208,31.049,5.393,38.561,15.283,13.974,34,17.364,46.23,6.389,43.367-17.364-35.321-6.084-49.4-12.641-5.5-23.55,0-25.921,27.992-14.518,39.309-16.795S8184.208,79.143,8184.208,79.143Z" transform="translate(-7957 80)" fill="url(#linear-gradient-5)"/>
    <path id="패스_52" data-name="패스 52" d="M8178.884,92.483s-20.558-8.262-40.048-1.293-25.583,13.869-33.35,29.137,1.208,31.049,5.393,38.561,15.283,13.974,34,17.364,46.23,6.389,43.367-17.364-35.321-6.084-49.4-12.641-5.5-23.55,0-25.921a23.735,23.735,0,0,1,10.1-2.035s.551-7.191,1.631-8.337S8178.884,92.483,8178.884,92.483Z" transform="translate(-7960)" fill="url(#linear-gradient-6)"/>
    <path id="패스_58" data-name="패스 58" d="M8421.793,149.229s15.315-13.034,22.243-17.359,25.6-17.975,25.6-17.975,13.452,116.119,17.839,155.27,9,163.524,9,163.524l-55.464,36.272s-7.643-133.138-10.19-177.518S8421.793,149.229,8421.793,149.229Z" transform="translate(-7960)" fill="#e8e8e8"/>
    <path id="빼기_22" data-name="빼기 22" d="M-5943.449,50a16.369,16.369,0,0,1-10.268-3.763,23.826,23.826,0,0,1-7.036-9.807c.9.08,1.847.12,2.9.12.482,0,.984-.009,1.533-.027a11.194,11.194,0,0,0,4.8-1.346,15.281,15.281,0,0,0,4.287-3.435,17.366,17.366,0,0,0,4.265-11.46,19.055,19.055,0,0,0-3.17-10.7,12.962,12.962,0,0,0-7.871-5.571A16.43,16.43,0,0,1-5943.449,0a15.706,15.706,0,0,1,7.57,1.965,19.94,19.94,0,0,1,6.182,5.358,26.228,26.228,0,0,1,4.168,7.947A31.074,31.074,0,0,1-5924,25a31.074,31.074,0,0,1-1.528,9.731,26.228,26.228,0,0,1-4.168,7.947,19.94,19.94,0,0,1-6.182,5.358A15.706,15.706,0,0,1-5943.449,50Z" transform="translate(6163 142)" fill="url(#linear-gradient-7)"/>
    <path id="빼기_27" data-name="빼기 27" d="M-5943.449,50a16.369,16.369,0,0,1-10.268-3.763,23.826,23.826,0,0,1-7.036-9.807c.9.08,1.847.12,2.9.12.482,0,.984-.009,1.533-.027a11.194,11.194,0,0,0,4.8-1.346,15.281,15.281,0,0,0,4.287-3.435,17.366,17.366,0,0,0,4.265-11.46,19.055,19.055,0,0,0-3.17-10.7,12.962,12.962,0,0,0-7.871-5.571A16.43,16.43,0,0,1-5943.449,0a15.706,15.706,0,0,1,7.57,1.965,19.94,19.94,0,0,1,6.182,5.358,26.228,26.228,0,0,1,4.168,7.947A31.074,31.074,0,0,1-5924,25a31.074,31.074,0,0,1-1.528,9.731,26.228,26.228,0,0,1-4.168,7.947,19.94,19.94,0,0,1-6.182,5.358A15.706,15.706,0,0,1-5943.449,50Z" transform="translate(6164 222)" fill="url(#linear-gradient-7)"/>
    <path id="빼기_28" data-name="빼기 28" d="M-5943.449,50a16.369,16.369,0,0,1-10.268-3.763,23.826,23.826,0,0,1-7.036-9.807c.9.08,1.847.12,2.9.12.482,0,.984-.009,1.533-.027a11.194,11.194,0,0,0,4.8-1.346,15.281,15.281,0,0,0,4.287-3.435,17.366,17.366,0,0,0,4.265-11.46,19.055,19.055,0,0,0-3.17-10.7,12.962,12.962,0,0,0-7.871-5.571A16.43,16.43,0,0,1-5943.449,0a15.706,15.706,0,0,1,7.57,1.965,19.94,19.94,0,0,1,6.182,5.358,26.228,26.228,0,0,1,4.168,7.947A31.074,31.074,0,0,1-5924,25a31.074,31.074,0,0,1-1.528,9.731,26.228,26.228,0,0,1-4.168,7.947,19.94,19.94,0,0,1-6.182,5.358A15.706,15.706,0,0,1-5943.449,50Z" transform="translate(6168 300)" fill="url(#linear-gradient-7)"/>
    <path id="빼기_29" data-name="빼기 29" d="M-5943.449,50a16.369,16.369,0,0,1-10.268-3.763,23.826,23.826,0,0,1-7.036-9.807c.9.08,1.847.12,2.9.12.482,0,.984-.009,1.533-.027a11.194,11.194,0,0,0,4.8-1.346,15.281,15.281,0,0,0,4.287-3.435,17.366,17.366,0,0,0,4.265-11.46,19.055,19.055,0,0,0-3.17-10.7,12.962,12.962,0,0,0-7.871-5.571A16.43,16.43,0,0,1-5943.449,0a15.706,15.706,0,0,1,7.57,1.965,19.94,19.94,0,0,1,6.182,5.358,26.228,26.228,0,0,1,4.168,7.947A31.074,31.074,0,0,1-5924,25a31.074,31.074,0,0,1-1.528,9.731,26.228,26.228,0,0,1-4.168,7.947,19.94,19.94,0,0,1-6.182,5.358A15.706,15.706,0,0,1-5943.449,50Z" transform="translate(6171 373)" fill="url(#linear-gradient-7)"/>
    <path id="패스_64" data-name="패스 64" d="M8462.225,119.2l11.336-8.129,15.109,168.2c3.777,42.051,7.855,154.329,7.855,154.329l-11.564,6.693s1.114-71.548-7.437-161.022S8462.225,119.2,8462.225,119.2Z" transform="translate(-7960)" fill="#f0f0f0"/>
    <path id="패스_65" data-name="패스 65" d="M8462.225,119.2l7.85-5.423s9.243,122.643,13.021,164.694S8491.574,435,8491.574,435l-8.381,5.436s-7.5-122.679-9.633-164.211S8462.225,119.2,8462.225,119.2Z" transform="translate(-7980 14)" fill="#f0f0f0"/>
    <path id="패스_66" data-name="패스 66" d="M8461.486,119.259l7.224-5.8s10.607,122.96,14.385,165.011,5.994,155.952,5.994,155.952l-5.892,3.85s-7.5-120.518-9.637-162.049S8461.486,119.259,8461.486,119.259Z" transform="translate(-7995 26)" fill="#f0f0f0"/>
  </g>
</svg>
