<svg xmlns="http://www.w3.org/2000/svg" xmlns:xlink="http://www.w3.org/1999/xlink" width="600.335" height="541.118" viewBox="0 0 600.335 541.118"><defs><linearGradient id="linear-gradient" x1=".484" x2=".875" y1=".255" y2=".929" gradientUnits="objectBoundingBox"><stop offset="0" stop-color="#fff"/><stop offset="1" stop-color="#f4f4f4"/></linearGradient><linearGradient id="linear-gradient-2" x1=".484" x2=".875" y1=".255" y2=".929" gradientUnits="objectBoundingBox"><stop offset="0" stop-color="#ffc900"/><stop offset="1" stop-color="#ffe455"/></linearGradient></defs><g id="그룹_34" data-name="그룹 34" transform="translate(-691.672 -643.312)"><path id="패스_89" fill="url(#linear-gradient)" d="M11184.4,921.178s26.765,28.236,38.532,71.312c6.938,25.394,12.807,52.9-7.779,92.242-25.2,48.149-59.44,79.574-85.773,90.484-30.557,12.661-56.507,10.033-86.376,4.354-55.211-10.5-108.96-65.043-108.96-65.043S10667.465,850.763,10660,835.793s-47.434-66.623,21.314-135.372,145.656-39.662,153.412-35.245c1.249.711,21.27,6.846,34.2,19.21,66.449,63.532,246.649,253.481,246.649,253.481s56.536,83.559,0,133.176-127.521-2.977-127.521-2.977-181.17-174.348-184.041-179.841-4.605-11.453,0-16.633,12.354-7.007,21.448,0,150.038,148.865,150.038,148.865,68.395,79.686,117.1,33.329,0-102.423,0-102.423-233.3-243.58-253.652-255.1-75.417-35.473-134.578,17.11-28.783,94.336-23.061,107.918,284.117,283.279,284.117,283.279,65.714,57.9,118.039,51.316,98.862-48.7,115.228-107.379-49.768-127.327-49.768-127.327-46.561-50.326-94.5-98.209c-44.706-44.657-90.84-86.783-95.12-94.788-8.862-16.572,6.443-21.776,18.243-19.422Z" data-name="패스 89" opacity=".996" transform="translate(-9950 -12)"/><path id="패스_86" fill="none" stroke="#fafafa" stroke-linecap="round" stroke-width="25" d="M10985.765,721.261s175.182,150.238,227.9,246.3c22.407,40.829,30.9,108.051-43.927,176.914s-183.978-13.562-183.978-13.562l-287.988-286.658s-59.253-72.349,6.982-140.479,131.021-22.249,151.776-16.678,265.518,267.787,265.518,267.787,44.932,53.325,7.448,99.6-75.405,22.45-106.112,13.779-192.756-188.614-192.756-188.614" data-name="패스 86" transform="translate(-9950)"/><path id="패스_88" fill="url(#linear-gradient-2)" d="M11184.4,921.178s26.765,28.236,38.532,71.312c6.938,25.394,12.807,52.9-7.779,92.242-25.2,48.149-59.44,79.574-85.773,90.484-30.557,12.661-56.507,10.033-86.376,4.354-55.211-10.5-108.96-65.043-108.96-65.043S10667.465,850.763,10660,835.793s-47.434-66.623,21.314-135.372,145.656-39.662,153.412-35.245c1.249.711,21.27,6.846,34.2,19.21,66.449,63.532,246.649,253.481,246.649,253.481s56.536,83.559,0,133.176-127.521-2.977-127.521-2.977-181.17-174.348-184.041-179.841-4.605-11.453,0-16.633,12.354-7.007,21.448,0,150.038,148.865,150.038,148.865,68.395,79.686,117.1,33.329,0-102.423,0-102.423-233.3-243.58-253.652-255.1-75.417-35.473-134.578,17.11-28.783,94.336-23.061,107.918,284.117,283.279,284.117,283.279,65.714,57.9,118.039,51.316,98.862-48.7,115.228-107.379-49.768-127.327-49.768-127.327-46.561-50.326-94.5-98.209c-44.706-44.657-90.84-86.783-95.12-94.788-8.862-16.572,6.443-21.776,18.243-19.422Z" data-name="패스 88" opacity=".996" transform="translate(-9950)"/></g></svg>